<mxfile host="65bd71144e">
    <diagram id="tfW9DbEBqG24QmGF4VCI" name="Page-1">
        <mxGraphModel dx="590" dy="277" grid="1" gridSize="10" guides="1" tooltips="1" connect="1" arrows="1" fold="1" page="1" pageScale="1" pageWidth="850" pageHeight="1100" math="0" shadow="0">
            <root>
                <mxCell id="0"/>
                <mxCell id="1" parent="0"/>
                <mxCell id="NI0tLn8_RyQaKg4bucBk-1" value="Catagory" style="rounded=1;whiteSpace=wrap;html=1;" parent="1" vertex="1">
                    <mxGeometry x="30" y="80" width="120" height="60" as="geometry"/>
                </mxCell>
                <mxCell id="NI0tLn8_RyQaKg4bucBk-2" value="Catagory" style="rounded=1;whiteSpace=wrap;html=1;" parent="1" vertex="1">
                    <mxGeometry x="180" y="80" width="120" height="60" as="geometry"/>
                </mxCell>
                <mxCell id="NI0tLn8_RyQaKg4bucBk-3" value="Catagory" style="rounded=1;whiteSpace=wrap;html=1;" parent="1" vertex="1">
                    <mxGeometry x="330" y="80" width="120" height="60" as="geometry"/>
                </mxCell>
                <mxCell id="NI0tLn8_RyQaKg4bucBk-4" value="Catagory" style="rounded=1;whiteSpace=wrap;html=1;" parent="1" vertex="1">
                    <mxGeometry x="480" y="80" width="120" height="60" as="geometry"/>
                </mxCell>
                <mxCell id="NI0tLn8_RyQaKg4bucBk-5" value="Catagory" style="rounded=1;whiteSpace=wrap;html=1;" parent="1" vertex="1">
                    <mxGeometry x="630" y="80" width="120" height="60" as="geometry"/>
                </mxCell>
                <mxCell id="NI0tLn8_RyQaKg4bucBk-6" value="Catagory" style="rounded=1;whiteSpace=wrap;html=1;" parent="1" vertex="1">
                    <mxGeometry x="780" y="80" width="120" height="60" as="geometry"/>
                </mxCell>
                <mxCell id="NI0tLn8_RyQaKg4bucBk-7" value="&lt;font style=&quot;font-size: 12px;&quot;&gt;Answer&lt;/font&gt;" style="whiteSpace=wrap;html=1;aspect=fixed;fontSize=25;" parent="1" vertex="1">
                    <mxGeometry x="50" y="161" width="80" height="80" as="geometry"/>
                </mxCell>
                <mxCell id="NI0tLn8_RyQaKg4bucBk-8" value="Actor" style="shape=umlActor;verticalLabelPosition=bottom;verticalAlign=top;html=1;outlineConnect=0;fontSize=12;" parent="1" vertex="1">
                    <mxGeometry x="50" y="730" width="30" height="60" as="geometry"/>
                </mxCell>
                <mxCell id="NI0tLn8_RyQaKg4bucBk-9" value="$" style="shape=process;whiteSpace=wrap;html=1;backgroundOutline=1;fontSize=12;" parent="1" vertex="1">
                    <mxGeometry x="25" y="820" width="80" height="40" as="geometry"/>
                </mxCell>
                <mxCell id="NI0tLn8_RyQaKg4bucBk-10" value="&lt;font style=&quot;font-size: 12px;&quot;&gt;Answer&lt;/font&gt;" style="whiteSpace=wrap;html=1;aspect=fixed;fontSize=25;" parent="1" vertex="1">
                    <mxGeometry x="50" y="260" width="80" height="80" as="geometry"/>
                </mxCell>
                <mxCell id="NI0tLn8_RyQaKg4bucBk-11" value="&lt;font style=&quot;font-size: 12px;&quot;&gt;Answer&lt;/font&gt;" style="whiteSpace=wrap;html=1;aspect=fixed;fontSize=25;" parent="1" vertex="1">
                    <mxGeometry x="50" y="360" width="80" height="80" as="geometry"/>
                </mxCell>
                <mxCell id="NI0tLn8_RyQaKg4bucBk-12" value="&lt;font style=&quot;font-size: 12px;&quot;&gt;Answer&lt;/font&gt;" style="whiteSpace=wrap;html=1;aspect=fixed;fontSize=25;" parent="1" vertex="1">
                    <mxGeometry x="50" y="460" width="80" height="80" as="geometry"/>
                </mxCell>
                <mxCell id="NI0tLn8_RyQaKg4bucBk-13" value="&lt;font style=&quot;font-size: 12px;&quot;&gt;Answer&lt;/font&gt;" style="whiteSpace=wrap;html=1;aspect=fixed;fontSize=25;" parent="1" vertex="1">
                    <mxGeometry x="50" y="560" width="80" height="80" as="geometry"/>
                </mxCell>
                <mxCell id="NI0tLn8_RyQaKg4bucBk-14" value="&lt;font style=&quot;font-size: 12px;&quot;&gt;Answer&lt;/font&gt;" style="whiteSpace=wrap;html=1;aspect=fixed;fontSize=25;" parent="1" vertex="1">
                    <mxGeometry x="200" y="161" width="80" height="80" as="geometry"/>
                </mxCell>
                <mxCell id="NI0tLn8_RyQaKg4bucBk-15" value="&lt;font style=&quot;font-size: 12px;&quot;&gt;Answer&lt;/font&gt;" style="whiteSpace=wrap;html=1;aspect=fixed;fontSize=25;" parent="1" vertex="1">
                    <mxGeometry x="200" y="260" width="80" height="80" as="geometry"/>
                </mxCell>
                <mxCell id="NI0tLn8_RyQaKg4bucBk-16" value="&lt;font style=&quot;font-size: 12px;&quot;&gt;Answer&lt;/font&gt;" style="whiteSpace=wrap;html=1;aspect=fixed;fontSize=25;" parent="1" vertex="1">
                    <mxGeometry x="200" y="360" width="80" height="80" as="geometry"/>
                </mxCell>
                <mxCell id="NI0tLn8_RyQaKg4bucBk-17" value="&lt;font style=&quot;font-size: 12px;&quot;&gt;Answer&lt;/font&gt;" style="whiteSpace=wrap;html=1;aspect=fixed;fontSize=25;" parent="1" vertex="1">
                    <mxGeometry x="200" y="460" width="80" height="80" as="geometry"/>
                </mxCell>
                <mxCell id="NI0tLn8_RyQaKg4bucBk-18" value="&lt;font style=&quot;font-size: 12px;&quot;&gt;Answer&lt;/font&gt;" style="whiteSpace=wrap;html=1;aspect=fixed;fontSize=25;" parent="1" vertex="1">
                    <mxGeometry x="200" y="560" width="80" height="80" as="geometry"/>
                </mxCell>
                <mxCell id="NI0tLn8_RyQaKg4bucBk-19" value="&lt;font style=&quot;font-size: 12px;&quot;&gt;Answer&lt;/font&gt;" style="whiteSpace=wrap;html=1;aspect=fixed;fontSize=25;" parent="1" vertex="1">
                    <mxGeometry x="350" y="161" width="80" height="80" as="geometry"/>
                </mxCell>
                <mxCell id="NI0tLn8_RyQaKg4bucBk-20" value="&lt;font style=&quot;font-size: 12px;&quot;&gt;Answer&lt;/font&gt;" style="whiteSpace=wrap;html=1;aspect=fixed;fontSize=25;" parent="1" vertex="1">
                    <mxGeometry x="350" y="260" width="80" height="80" as="geometry"/>
                </mxCell>
                <mxCell id="NI0tLn8_RyQaKg4bucBk-21" value="&lt;font style=&quot;font-size: 12px;&quot;&gt;Answer&lt;/font&gt;" style="whiteSpace=wrap;html=1;aspect=fixed;fontSize=25;" parent="1" vertex="1">
                    <mxGeometry x="350" y="360" width="80" height="80" as="geometry"/>
                </mxCell>
                <mxCell id="NI0tLn8_RyQaKg4bucBk-22" value="&lt;font style=&quot;font-size: 12px;&quot;&gt;Answer&lt;/font&gt;" style="whiteSpace=wrap;html=1;aspect=fixed;fontSize=25;" parent="1" vertex="1">
                    <mxGeometry x="350" y="460" width="80" height="80" as="geometry"/>
                </mxCell>
                <mxCell id="NI0tLn8_RyQaKg4bucBk-23" value="&lt;font style=&quot;font-size: 12px;&quot;&gt;Answer&lt;/font&gt;" style="whiteSpace=wrap;html=1;aspect=fixed;fontSize=25;" parent="1" vertex="1">
                    <mxGeometry x="350" y="560" width="80" height="80" as="geometry"/>
                </mxCell>
                <mxCell id="NI0tLn8_RyQaKg4bucBk-24" value="&lt;font style=&quot;font-size: 12px;&quot;&gt;Answer&lt;/font&gt;" style="whiteSpace=wrap;html=1;aspect=fixed;fontSize=25;" parent="1" vertex="1">
                    <mxGeometry x="500" y="160.5" width="80" height="80" as="geometry"/>
                </mxCell>
                <mxCell id="NI0tLn8_RyQaKg4bucBk-25" value="&lt;font style=&quot;font-size: 12px;&quot;&gt;Answer&lt;/font&gt;" style="whiteSpace=wrap;html=1;aspect=fixed;fontSize=25;" parent="1" vertex="1">
                    <mxGeometry x="500" y="259.5" width="80" height="80" as="geometry"/>
                </mxCell>
                <mxCell id="NI0tLn8_RyQaKg4bucBk-26" value="&lt;font style=&quot;font-size: 12px;&quot;&gt;Answer&lt;/font&gt;" style="whiteSpace=wrap;html=1;aspect=fixed;fontSize=25;" parent="1" vertex="1">
                    <mxGeometry x="500" y="359.5" width="80" height="80" as="geometry"/>
                </mxCell>
                <mxCell id="NI0tLn8_RyQaKg4bucBk-27" value="&lt;font style=&quot;font-size: 12px;&quot;&gt;Answer&lt;/font&gt;" style="whiteSpace=wrap;html=1;aspect=fixed;fontSize=25;" parent="1" vertex="1">
                    <mxGeometry x="500" y="459.5" width="80" height="80" as="geometry"/>
                </mxCell>
                <mxCell id="NI0tLn8_RyQaKg4bucBk-28" value="&lt;font style=&quot;font-size: 12px;&quot;&gt;Answer&lt;/font&gt;" style="whiteSpace=wrap;html=1;aspect=fixed;fontSize=25;" parent="1" vertex="1">
                    <mxGeometry x="500" y="559.5" width="80" height="80" as="geometry"/>
                </mxCell>
                <mxCell id="NI0tLn8_RyQaKg4bucBk-29" value="&lt;font style=&quot;font-size: 12px;&quot;&gt;Answer&lt;/font&gt;" style="whiteSpace=wrap;html=1;aspect=fixed;fontSize=25;" parent="1" vertex="1">
                    <mxGeometry x="650" y="160" width="80" height="80" as="geometry"/>
                </mxCell>
                <mxCell id="NI0tLn8_RyQaKg4bucBk-30" value="&lt;font style=&quot;font-size: 12px;&quot;&gt;Answer&lt;/font&gt;" style="whiteSpace=wrap;html=1;aspect=fixed;fontSize=25;" parent="1" vertex="1">
                    <mxGeometry x="650" y="259" width="80" height="80" as="geometry"/>
                </mxCell>
                <mxCell id="NI0tLn8_RyQaKg4bucBk-31" value="&lt;font style=&quot;font-size: 12px;&quot;&gt;Answer&lt;/font&gt;" style="whiteSpace=wrap;html=1;aspect=fixed;fontSize=25;" parent="1" vertex="1">
                    <mxGeometry x="650" y="359" width="80" height="80" as="geometry"/>
                </mxCell>
                <mxCell id="NI0tLn8_RyQaKg4bucBk-32" value="&lt;font style=&quot;font-size: 12px;&quot;&gt;Answer&lt;/font&gt;" style="whiteSpace=wrap;html=1;aspect=fixed;fontSize=25;" parent="1" vertex="1">
                    <mxGeometry x="650" y="459" width="80" height="80" as="geometry"/>
                </mxCell>
                <mxCell id="NI0tLn8_RyQaKg4bucBk-33" value="&lt;font style=&quot;font-size: 12px;&quot;&gt;Answer&lt;/font&gt;" style="whiteSpace=wrap;html=1;aspect=fixed;fontSize=25;" parent="1" vertex="1">
                    <mxGeometry x="650" y="559" width="80" height="80" as="geometry"/>
                </mxCell>
                <mxCell id="NI0tLn8_RyQaKg4bucBk-34" value="&lt;font style=&quot;font-size: 12px;&quot;&gt;Answer&lt;/font&gt;" style="whiteSpace=wrap;html=1;aspect=fixed;fontSize=25;" parent="1" vertex="1">
                    <mxGeometry x="800" y="150" width="80" height="80" as="geometry"/>
                </mxCell>
                <mxCell id="NI0tLn8_RyQaKg4bucBk-35" value="&lt;font style=&quot;font-size: 12px;&quot;&gt;Answer&lt;/font&gt;" style="whiteSpace=wrap;html=1;aspect=fixed;fontSize=25;" parent="1" vertex="1">
                    <mxGeometry x="800" y="249" width="80" height="80" as="geometry"/>
                </mxCell>
                <mxCell id="NI0tLn8_RyQaKg4bucBk-36" value="&lt;font style=&quot;font-size: 12px;&quot;&gt;Answer&lt;/font&gt;" style="whiteSpace=wrap;html=1;aspect=fixed;fontSize=25;" parent="1" vertex="1">
                    <mxGeometry x="800" y="349" width="80" height="80" as="geometry"/>
                </mxCell>
                <mxCell id="NI0tLn8_RyQaKg4bucBk-37" value="&lt;font style=&quot;font-size: 12px;&quot;&gt;Answer&lt;/font&gt;" style="whiteSpace=wrap;html=1;aspect=fixed;fontSize=25;" parent="1" vertex="1">
                    <mxGeometry x="800" y="449" width="80" height="80" as="geometry"/>
                </mxCell>
                <mxCell id="NI0tLn8_RyQaKg4bucBk-38" value="&lt;font style=&quot;font-size: 12px;&quot;&gt;Answer&lt;/font&gt;" style="whiteSpace=wrap;html=1;aspect=fixed;fontSize=25;" parent="1" vertex="1">
                    <mxGeometry x="800" y="549" width="80" height="80" as="geometry"/>
                </mxCell>
                <mxCell id="NI0tLn8_RyQaKg4bucBk-50" value="&lt;font style=&quot;font-size: 12px;&quot;&gt;Answer&lt;/font&gt;" style="whiteSpace=wrap;html=1;aspect=fixed;fontSize=25;" parent="1" vertex="1">
                    <mxGeometry x="20" y="880" width="80" height="80" as="geometry"/>
                </mxCell>
                <mxCell id="NI0tLn8_RyQaKg4bucBk-51" value="This card needs to flip 4 times" style="text;html=1;strokeColor=none;fillColor=none;align=center;verticalAlign=middle;whiteSpace=wrap;rounded=0;fontSize=12;" parent="1" vertex="1">
                    <mxGeometry x="255" y="905" width="60" height="30" as="geometry"/>
                </mxCell>
                <mxCell id="NI0tLn8_RyQaKg4bucBk-55" value="" style="shape=link;html=1;rounded=0;fontSize=12;" parent="1" edge="1">
                    <mxGeometry width="100" relative="1" as="geometry">
                        <mxPoint x="130" y="919.41" as="sourcePoint"/>
                        <mxPoint x="230" y="919.41" as="targetPoint"/>
                    </mxGeometry>
                </mxCell>
                <mxCell id="NI0tLn8_RyQaKg4bucBk-57" value="Timer" style="rounded=1;whiteSpace=wrap;html=1;fontSize=12;" parent="1" vertex="1">
                    <mxGeometry x="10" y="10" width="80" height="40" as="geometry"/>
                </mxCell>
                <mxCell id="NI0tLn8_RyQaKg4bucBk-58" value="Buzz" style="ellipse;whiteSpace=wrap;html=1;aspect=fixed;fontSize=12;" parent="1" vertex="1">
                    <mxGeometry x="50" y="680" width="30" height="30" as="geometry"/>
                </mxCell>
                <mxCell id="NI0tLn8_RyQaKg4bucBk-59" value="Actor" style="shape=umlActor;verticalLabelPosition=bottom;verticalAlign=top;html=1;outlineConnect=0;fontSize=12;" parent="1" vertex="1">
                    <mxGeometry x="235" y="730" width="30" height="60" as="geometry"/>
                </mxCell>
                <mxCell id="NI0tLn8_RyQaKg4bucBk-60" value="$" style="shape=process;whiteSpace=wrap;html=1;backgroundOutline=1;fontSize=12;" parent="1" vertex="1">
                    <mxGeometry x="210" y="820" width="80" height="40" as="geometry"/>
                </mxCell>
                <mxCell id="NI0tLn8_RyQaKg4bucBk-61" value="Buzz" style="ellipse;whiteSpace=wrap;html=1;aspect=fixed;fontSize=12;" parent="1" vertex="1">
                    <mxGeometry x="235" y="680" width="30" height="30" as="geometry"/>
                </mxCell>
                <mxCell id="NI0tLn8_RyQaKg4bucBk-62" value="Actor" style="shape=umlActor;verticalLabelPosition=bottom;verticalAlign=top;html=1;outlineConnect=0;fontSize=12;" parent="1" vertex="1">
                    <mxGeometry x="425" y="730" width="30" height="60" as="geometry"/>
                </mxCell>
                <mxCell id="NI0tLn8_RyQaKg4bucBk-63" value="$" style="shape=process;whiteSpace=wrap;html=1;backgroundOutline=1;fontSize=12;" parent="1" vertex="1">
                    <mxGeometry x="400" y="820" width="80" height="40" as="geometry"/>
                </mxCell>
                <mxCell id="NI0tLn8_RyQaKg4bucBk-64" value="Buzz" style="ellipse;whiteSpace=wrap;html=1;aspect=fixed;fontSize=12;" parent="1" vertex="1">
                    <mxGeometry x="425" y="680" width="30" height="30" as="geometry"/>
                </mxCell>
                <mxCell id="NI0tLn8_RyQaKg4bucBk-65" value="Actor" style="shape=umlActor;verticalLabelPosition=bottom;verticalAlign=top;html=1;outlineConnect=0;fontSize=12;" parent="1" vertex="1">
                    <mxGeometry x="625" y="730" width="30" height="60" as="geometry"/>
                </mxCell>
                <mxCell id="NI0tLn8_RyQaKg4bucBk-66" value="$" style="shape=process;whiteSpace=wrap;html=1;backgroundOutline=1;fontSize=12;" parent="1" vertex="1">
                    <mxGeometry x="600" y="820" width="80" height="40" as="geometry"/>
                </mxCell>
                <mxCell id="NI0tLn8_RyQaKg4bucBk-67" value="Buzz" style="ellipse;whiteSpace=wrap;html=1;aspect=fixed;fontSize=12;" parent="1" vertex="1">
                    <mxGeometry x="625" y="680" width="30" height="30" as="geometry"/>
                </mxCell>
                <mxCell id="NI0tLn8_RyQaKg4bucBk-68" value="Actor" style="shape=umlActor;verticalLabelPosition=bottom;verticalAlign=top;html=1;outlineConnect=0;fontSize=12;" parent="1" vertex="1">
                    <mxGeometry x="825" y="730" width="30" height="60" as="geometry"/>
                </mxCell>
                <mxCell id="NI0tLn8_RyQaKg4bucBk-69" value="$" style="shape=process;whiteSpace=wrap;html=1;backgroundOutline=1;fontSize=12;" parent="1" vertex="1">
                    <mxGeometry x="800" y="820" width="80" height="40" as="geometry"/>
                </mxCell>
                <mxCell id="NI0tLn8_RyQaKg4bucBk-70" value="Buzz" style="ellipse;whiteSpace=wrap;html=1;aspect=fixed;fontSize=12;" parent="1" vertex="1">
                    <mxGeometry x="825" y="680" width="30" height="30" as="geometry"/>
                </mxCell>
                <mxCell id="NI0tLn8_RyQaKg4bucBk-71" value="Color Palette" style="text;html=1;strokeColor=none;fillColor=none;align=center;verticalAlign=middle;whiteSpace=wrap;rounded=0;fontSize=12;fontStyle=1" parent="1" vertex="1">
                    <mxGeometry x="620" y="890" width="110" height="30" as="geometry"/>
                </mxCell>
                <mxCell id="ZKgZ5zU8_ZJNzwoIvUH1-2" value="&lt;h1&gt;Card Position 4&lt;/h1&gt;&lt;div&gt;&lt;br&gt;&lt;/div&gt;" style="text;html=1;strokeColor=none;fillColor=none;spacing=5;spacingTop=-20;whiteSpace=wrap;overflow=hidden;rounded=0;" parent="1" vertex="1">
                    <mxGeometry x="840" y="1370" width="190" height="50" as="geometry"/>
                </mxCell>
                <mxCell id="ZKgZ5zU8_ZJNzwoIvUH1-3" value="&lt;p style=&quot;line-height: 1.2;&quot;&gt;$100&lt;/p&gt;" style="whiteSpace=wrap;html=1;aspect=fixed;fillColor=#0c4cc2;fontSize=40;fontColor=#F6A32D;align=center;" parent="1" vertex="1">
                    <mxGeometry x="855" y="1410" width="150" height="150" as="geometry"/>
                </mxCell>
                <mxCell id="ZKgZ5zU8_ZJNzwoIvUH1-5" value="&lt;h1&gt;Catagories&lt;/h1&gt;&lt;div&gt;&lt;br&gt;&lt;/div&gt;" style="text;html=1;strokeColor=none;fillColor=none;spacing=5;spacingTop=-20;whiteSpace=wrap;overflow=hidden;rounded=0;" parent="1" vertex="1">
                    <mxGeometry x="45" y="990" width="190" height="50" as="geometry"/>
                </mxCell>
                <mxCell id="ZKgZ5zU8_ZJNzwoIvUH1-7" value="" style="rounded=1;whiteSpace=wrap;html=1;fontSize=40;fontColor=#F1F8F0;fillColor=#060ce9;" parent="1" vertex="1">
                    <mxGeometry x="20" y="1030" width="190" height="120" as="geometry"/>
                </mxCell>
                <mxCell id="ZKgZ5zU8_ZJNzwoIvUH1-9" value="Catagory" style="text;html=1;strokeColor=none;fillColor=none;align=center;verticalAlign=middle;whiteSpace=wrap;rounded=0;fontSize=40;fontColor=#F1F8F0;" parent="1" vertex="1">
                    <mxGeometry x="80" y="1070" width="60" height="30" as="geometry"/>
                </mxCell>
                <mxCell id="ZKgZ5zU8_ZJNzwoIvUH1-10" value="&lt;h1&gt;Card Position 2&lt;/h1&gt;&lt;div&gt;&lt;br&gt;&lt;/div&gt;" style="text;html=1;strokeColor=none;fillColor=none;spacing=5;spacingTop=-20;whiteSpace=wrap;overflow=hidden;rounded=0;" parent="1" vertex="1">
                    <mxGeometry x="315" y="1370" width="190" height="50" as="geometry"/>
                </mxCell>
                <mxCell id="ZKgZ5zU8_ZJNzwoIvUH1-11" value="" style="whiteSpace=wrap;html=1;aspect=fixed;fillColor=#115ff3;fontSize=20;fontColor=#F1F8F0;" parent="1" vertex="1">
                    <mxGeometry x="335" y="1410" width="150" height="150" as="geometry"/>
                </mxCell>
                <mxCell id="ZKgZ5zU8_ZJNzwoIvUH1-13" value="BLANK stands for Cascading Style Sheets" style="text;html=1;strokeColor=none;fillColor=none;align=center;verticalAlign=middle;whiteSpace=wrap;rounded=0;fontSize=20;fontColor=#F1F8F0;" parent="1" vertex="1">
                    <mxGeometry x="340" y="1470" width="140" height="30" as="geometry"/>
                </mxCell>
                <mxCell id="ZKgZ5zU8_ZJNzwoIvUH1-14" value="&lt;h1&gt;Card Position 3&lt;/h1&gt;&lt;div&gt;&lt;br&gt;&lt;/div&gt;" style="text;html=1;strokeColor=none;fillColor=none;spacing=5;spacingTop=-20;whiteSpace=wrap;overflow=hidden;rounded=0;" parent="1" vertex="1">
                    <mxGeometry x="580" y="1370" width="190" height="50" as="geometry"/>
                </mxCell>
                <mxCell id="ZKgZ5zU8_ZJNzwoIvUH1-15" value="" style="whiteSpace=wrap;html=1;aspect=fixed;fillColor=#115ff3;fontSize=20;fontColor=#F1F8F0;" parent="1" vertex="1">
                    <mxGeometry x="600" y="1410" width="150" height="150" as="geometry"/>
                </mxCell>
                <mxCell id="ZKgZ5zU8_ZJNzwoIvUH1-16" value="What is CSS?" style="text;html=1;strokeColor=none;fillColor=none;align=center;verticalAlign=middle;whiteSpace=wrap;rounded=0;fontSize=20;fontColor=#F1F8F0;" parent="1" vertex="1">
                    <mxGeometry x="605" y="1470" width="140" height="30" as="geometry"/>
                </mxCell>
                <mxCell id="2" value="" style="shape=image;verticalLabelPosition=bottom;labelBackgroundColor=#ffffff;verticalAlign=top;aspect=fixed;imageAspect=0;image=data:image/png,iVBORw0KGgoAAAANSUhEUgAABkAAAASwCAYAAACjAYaXAAAABmJLR0QA/wD/AP+gvaeTAAAgAElEQVR4nOzZsRFBUQAAQQQ/QKoZJUgEWjBCTapFINGAgBIkZp5/s1vB5becto/3AuCLzWk9OgGYgftxPzoBmIHX4TY6AZiB6XkenQDMwO5yHZ0A/LHV6AAAAAAAAIBfM0AAAAAAAIAcAwQAAAAAAMgxQAAAAAAAgBwDBAAAAAAAyDFAAAAAAACAHAMEAAAAAADIMUAAAAAAAIAcAwQAAAAAAMgxQAAAAAAAgBwDBAAAAAAAyDFAAAAAAACAHAMEAAAAAADIMUAAAAAAAIAcAwQAAAAAAMgxQAAAAAAAgBwDBAAAAAAAyDFAAAAAAACAHAMEAAAAAADIMUAAAAAAAIAcAwQAAAAAAMgxQAAAAAAAgBwDBAAAAAAAyDFAAAAAAACAHAMEAAAAAADIMUAAAAAAAIAcAwQAAAAAAMgxQAAAAAAAgBwDBAAAAAAAyDFAAAAAAACAHAMEAAAAAADIMUAAAAAAAIAcAwQAAAAAAMgxQAAAAAAAgBwDBAAAAAAAyDFAAAAAAACAHAMEAAAAAADIMUAAAAAAAIAcAwQAAAAAAMgxQAAAAAAAgBwDBAAAAAAAyDFAAAAAAACAHAMEAAAAAADIMUAAAAAAAIAcAwQAAAAAAMgxQAAAAAAAgBwDBAAAAAAAyDFAAAAAAACAHAMEAAAAAADIMUAAAAAAAIAcAwQAAAAAAMgxQAAAAAAAgBwDBAAAAAAAyDFAAAAAAACAHAMEAAAAAADIMUAAAAAAAIAcAwQAAAAAAMgxQAAAAAAAgBwDBAAAAAAAyDFAAAAAAACAHAMEAAAAAADIMUAAAAAAAIAcAwQAAAAAAMgxQAAAAAAAgBwDBAAAAAAAyDFAAAAAAACAHAMEAAAAAADIMUAAAAAAAIAcAwQAAAAAAMgxQAAAAAAAgBwDBAAAAAAAyDFAAAAAAACAHAMEAAAAAADIMUAAAAAAAIAcAwQAAAAAAMgxQAAAAAAAgBwDBAAAAAAAyDFAAAAAAACAHAMEAAAAAADIMUAAAAAAAIAcAwQAAAAAAMgxQAAAAAAAgBwDBAAAAAAAyDFAAAAAAACAHAMEAAAAAADIMUAAAAAAAIAcAwQAAAAAAMgxQAAAAAAAgBwDBAAAAAAAyDFAAAAAAACAHAMEAAAAAADIMUAAAAAAAIAcAwQAAAAAAMgxQAAAAAAAgBwDBAAAAAAAyDFAAAAAAACAHAMEAAAAAADIMUAAAAAAAIAcAwQAAAAAAMgxQAAAAAAAgBwDBAAAAAAAyDFAAAAAAACAHAMEAAAAAADIMUAAAAAAAIAcAwQAAAAAAMgxQAAAAAAAgBwDBAAAAAAAyDFAAAAAAACAHAMEAAAAAADIMUAAAAAAAIAcAwQAAAAAAMgxQAAAAAAAgBwDBAAAAAAAyDFAAAAAAACAHAMEAAAAAADIMUAAAAAAAIAcAwQAAAAAAMgxQAAAAAAAgBwDBAAAAAAAyDFAAAAAAACAHAMEAAAAAADIMUAAAAAAAIAcAwQAAAAAAMgxQAAAAAAAgBwDBAAAAAAAyDFAAAAAAACAHAMEAAAAAADIMUAAAAAAAIAcAwQAAAAAAMgxQAAAAAAAgBwDBAAAAAAAyDFAAAAAAACAHAMEAAAAAADIMUAAAAAAAIAcAwQAAAAAAMgxQAAAAAAAgBwDBAAAAAAAyDFAAAAAAACAHAMEAAAAAADIMUAAAAAAAIAcAwQAAAAAAMgxQAAAAAAAgBwDBAAAAAAAyDFAAAAAAACAHAMEAAAAAADIMUAAAAAAAIAcAwQAAAAAAMgxQAAAAAAAgBwDBAAAAAAAyDFAAAAAAACAHAMEAAAAAADIMUAAAAAAAIAcAwQAAAAAAMgxQAAAAAAAgBwDBAAAAAAAyDFAAAAAAACAHAMEAAAAAADIMUAAAAAAAIAcAwQAAAAAAMgxQAAAAAAAgBwDBAAAAAAAyDFAAAAAAACAHAMEAAAAAADIMUAAAAAAAIAcAwQAAAAAAMgxQAAAAAAAgBwDBAAAAAAAyDFAAAAAAACAHAMEAAAAAADIMUAAAAAAAIAcAwQAAAAAAMgxQAAAAAAAgBwDBAAAAAAAyDFAAAAAAACAHAMEAAAAAADIMUAAAAAAAIAcAwQAAAAAAMgxQAAAAAAAgBwDBAAAAAAAyDFAAAAAAACAHAMEAAAAAADIMUAAAAAAAIAcAwQAAAAAAMgxQAAAAAAAgBwDBAAAAAAAyDFAAAAAAACAHAMEAAAAAADIMUAAAAAAAIAcAwQAAAAAAMgxQAAAAAAAgBwDBAAAAAAAyDFAAAAAAACAHAMEAAAAAADIMUAAAAAAAIAcAwQAAAAAAMgxQAAAAAAAgBwDBAAAAAAAyDFAAAAAAACAHAMEAAAAAADIMUAAAAAAAIAcAwQAAAAAAMgxQAAAAAAAgBwDBAAAAAAAyDFAAAAAAACAHAMEAAAAAADIMUAAAAAAAIAcAwQAAAAAAMgxQAAAAAAAgBwDBAAAAAAAyDFAAAAAAACAHAMEAAAAAADIMUAAAAAAAIAcAwQAAAAAAMgxQAAAAAAAgBwDBAAAAAAAyDFAAAAAAACAHAMEAAAAAADIMUAAAAAAAIAcAwQAAAAAAMgxQAAAAAAAgBwDBAAAAAAAyDFAAAAAAACAHAMEAAAAAADIMUAAAAAAAIAcAwQAAAAAAMgxQAAAAAAAgBwDBAAAAAAAyDFAAAAAAACAHAMEAAAAAADIMUAAAAAAAIAcAwQAAAAAAMgxQAAAAAAAgBwDBAAAAAAAyDFAAAAAAACAHAMEAAAAAADIMUAAAAAAAIAcAwQAAAAAAMgxQAAAAAAAgBwDBAAAAAAAyDFAAAAAAACAHAMEAAAAAADIMUAAAAAAAIAcAwQAAAAAAMgxQAAAAAAAgBwDBAAAAAAAyDFAAAAAAACAHAMEAAAAAADIMUAAAAAAAIAcAwQAAAAAAMgxQAAAAAAAgBwDBAAAAAAAyDFAAAAAAACAHAMEAAAAAADIMUAAAAAAAIAcAwQAAAAAAMgxQAAAAAAAgBwDBAAAAAAAyDFAAAAAAACAHAMEAAAAAADIMUAAAAAAAIAcAwQAAAAAAMgxQAAAAAAAgBwDBAAAAAAAyDFAAAAAAACAHAMEAAAAAADIMUAAAAAAAIAcAwQAAAAAAMgxQAAAAAAAgBwDBAAAAAAAyDFAAAAAAACAHAMEAAAAAADIMUAAAAAAAIAcAwQAAAAAAMgxQAAAAAAAgBwDBAAAAAAAyDFAAAAAAACAHAMEAAAAAADIMUAAAAAAAIAcAwQAAAAAAMgxQAAAAAAAgBwDBAAAAAAAyDFAAAAAAACAHAMEAAAAAADIMUAAAAAAAIAcAwQAAAAAAMgxQAAAAAAAgBwDBAAAAAAAyDFAAAAAAACAHAMEAAAAAADIMUAAAAAAAIAcAwQAAAAAAMgxQAAAAAAAgBwDBAAAAAAAyDFAAAAAAACAHAMEAAAAAADIMUAAAAAAAIAcAwQAAAAAAMgxQAAAAAAAgBwDBAAAAAAAyDFAAAAAAACAHAMEAAAAAADIMUAAAAAAAIAcAwQAAAAAAMgxQAAAAAAAgBwDBAAAAAAAyDFAAAAAAACAHAMEAAAAAADIMUAAAAAAAIAcAwQAAAAAAMgxQAAAAAAAgBwDBAAAAAAAyDFAAAAAAACAHAMEAAAAAADIMUAAAAAAAIAcAwQAAAAAAMgxQAAAAAAAgBwDBAAAAAAAyDFAAAAAAACAHAMEAAAAAADIMUAAAAAAAIAcAwQAAAAAAMgxQAAAAAAAgBwDBAAAAAAAyDFAAAAAAACAHAMEAAAAAADIMUAAAAAAAIAcAwQAAAAAAMgxQAAAAAAAgBwDBAAAAAAAyDFAAAAAAACAHAMEAAAAAADIMUAAAAAAAIAcAwQAAAAAAMgxQAAAAAAAgBwDBAAAAAAAyDFAAAAAAACAHAMEAAAAAADIMUAAAAAAAIAcAwQAAAAAAMgxQAAAAAAAgBwDBAAAAAAAyDFAAAAAAACAHAMEAAAAAADIMUAAAAAAAIAcAwQAAAAAAMgxQAAAAAAAgBwDBAAAAAAAyDFAAAAAAACAHAMEAAAAAADIMUAAAAAAAIAcAwQAAAAAAMgxQAAAAAAAgBwDBAAAAAAAyDFAAAAAAACAHAMEAAAAAADIMUAAAAAAAIAcAwQAAAAAAMgxQAAAAAAAgBwDBAAAAAAAyDFAAAAAAACAHAMEAAAAAADIMUAAAAAAAIAcAwQAAAAAAMgxQAAAAAAAgBwDBAAAAAAAyDFAAAAAAACAHAMEAAAAAADIMUAAAAAAAIAcAwQAAAAAAMgxQAAAAAAAgBwDBAAAAAAAyDFAAAAAAACAHAMEAAAAAADIMUAAAAAAAIAcAwQAAAAAAMgxQAAAAAAAgBwDBAAAAAAAyDFAAAAAAACAHAMEAAAAAADIMUAAAAAAAIAcAwQAAAAAAMgxQAAAAAAAgBwDBAAAAAAAyDFAAAAAAACAHAMEAAAAAADIMUAAAAAAAIAcAwQAAAAAAMgxQAAAAAAAgBwDBAAAAAAAyDFAAAAAAACAHAMEAAAAAADIMUAAAAAAAIAcAwQAAAAAAMgxQAAAAAAAgBwDBAAAAAAAyDFAAAAAAACAHAMEAAAAAADIMUAAAAAAAIAcAwQAAAAAAMgxQAAAAAAAgBwDBAAAAAAAyDFAAAAAAACAHAMEAAAAAADIMUAAAAAAAIAcAwQAAAAAAMgxQAAAAAAAgBwDBAAAAAAAyDFAAAAAAACAHAMEAAAAAADIMUAAAAAAAIAcAwQAAAAAAMgxQAAAAAAAgBwDBAAAAAAAyDFAAAAAAACAHAMEAAAAAADIMUAAAAAAAIAcAwQAAAAAAMgxQAAAAAAAgBwDBAAAAAAAyDFAAAAAAACAHAMEAAAAAADIMUAAAAAAAIAcAwQAAAAAAMgxQAAAAAAAgBwDBAAAAAAAyDFAAAAAAACAHAMEAAAAAADIMUAAAAAAAIAcAwQAAAAAAMgxQAAAAAAAgBwDBAAAAAAAyDFAAAAAAACAHAMEAAAAAADIMUAAAAAAAIAcAwQAAAAAAMgxQAAAAAAAgBwDBAAAAAAAyDFAAAAAAACAHAMEAAAAAADIMUAAAAAAAIAcAwQAAAAAAMgxQAAAAAAAgBwDBAAAAAAAyDFAAAAAAACAHAMEAAAAAADIMUAAAAAAAIAcAwQAAAAAAMgxQAAAAAAAgBwDBAAAAAAAyDFAAAAAAACAHAMEAAAAAADIMUAAAAAAAIAcAwQAAAAAAMgxQAAAAAAAgBwDBAAAAAAAyDFAAAAAAACAHAMEAAAAAADIMUAAAAAAAIAcAwQAAAAAAMgxQAAAAAAAgBwDBAAAAAAAyDFAAAAAAACAHAMEAAAAAADIMUAAAAAAAIAcAwQAAAAAAMgxQAAAAAAAgBwDBAAAAAAAyDFAAAAAAACAHAMEAAAAAADIMUAAAAAAAIAcAwQAAAAAAMgxQAAAAAAAgBwDBAAAAAAAyDFAAAAAAACAHAMEAAAAAADIMUAAAAAAAIAcAwQAAAAAAMgxQAAAAAAAgBwDBAAAAAAAyDFAAAAAAACAHAMEAAAAAADIMUAAAAAAAIAcAwQAAAAAAMgxQAAAAAAAgBwDBAAAAAAAyDFAAAAAAACAHAMEAAAAAADIMUAAAAAAAIAcAwQAAAAAAMgxQAAAAAAAgBwDBAAAAAAAyDFAAAAAAACAHAMEAAAAAADIMUAAAAAAAIAcAwQAAAAAAMgxQAAAAAAAgBwDBAAAAAAAyDFAAAAAAACAHAMEAAAAAADIMUAAAAAAAIAcAwQAAAAAAMgxQAAAAAAAgBwDBAAAAAAAyDFAAAAAAACAHAMEAAAAAADIMUAAAAAAAIAcAwQAAAAAAMgxQAAAAAAAgBwDBAAAAAAAyDFAAAAAAACAHAMEAAAAAADIMUAAAAAAAIAcAwQAAAAAAMgxQAAAAAAAgBwDBAAAAAAAyDFAAAAAAACAHAMEAAAAAADIMUAAAAAAAIAcAwQAAAAAAMgxQAAAAAAAgBwDBAAAAAAAyDFAAAAAAACAHAMEAAAAAADIMUAAAAAAAIAcAwQAAAAAAMgxQAAAAAAAgBwDBAAAAAAAyDFAAAAAAACAHAMEAAAAAADIMUAAAAAAAIAcAwQAAAAAAMgxQAAAAAAAgBwDBAAAAAAAyDFAAAAAAACAHAMEAAAAAADIMUAAAAAAAIAcAwQAAAAAAMgxQAAAAAAAgBwDBAAAAAAAyDFAAAAAAACAHAMEAAAAAADIMUAAAAAAAIAcAwQAAAAAAMgxQAAAAAAAgBwDBAAAAAAAyDFAAAAAAACAHAMEAAAAAADIMUAAAAAAAIAcAwQAAAAAAMgxQAAAAAAAgBwDBAAAAAAAyDFAAAAAAACAHAMEAAAAAADIMUAAAAAAAIAcAwQAAAAAAMgxQAAAAAAAgBwDBAAAAAAAyDFAAAAAAACAHAMEAAAAAADIMUAAAAAAAIAcAwQAAAAAAMgxQAAAAAAAgBwDBAAAAAAAyDFAAAAAAACAHAMEAAAAAADIMUAAAAAAAIAcAwQAAAAAAMgxQAAAAAAAgBwDBAAAAAAAyDFAAAAAAACAHAMEAAAAAADIMUAAAAAAAIAcAwQAAAAAAMgxQAAAAAAAgBwDBAAAAAAAyDFAAAAAAACAHAMEAAAAAADIMUAAAAAAAIAcAwQAAAAAAMgxQAAAAAAAgBwDBAAAAAAAyDFAAAAAAACAHAMEAAAAAADIMUAAAAAAAIAcAwQAAAAAAMgxQAAAAAAAgBwDBAAAAAAAyDFAAAAAAACAHAMEAAAAAADIMUAAAAAAAIAcAwQAAAAAAMgxQAAAAAAAgBwDBAAAAAAAyDFAAAAAAACAHAMEAAAAAADIMUAAAAAAAIAcAwQAAAAAAMgxQAAAAAAAgBwDBAAAAAAAyDFAAAAAAACAHAMEAAAAAADIMUAAAAAAAIAcAwQAAAAAAMgxQAAAAAAAgBwDBAAAAAAAyDFAAAAAAACAHAMEAAAAAADIMUAAAAAAAIAcAwQAAAAAAMgxQAAAAAAAgBwDBAAAAAAAyDFAAAAAAACAHAMEAAAAAADIMUAAAAAAAIAcAwQAAAAAAMgxQAAAAAAAgBwDBAAAAAAAyDFAAAAAAACAHAMEAAAAAADIMUAAAAAAAIAcAwQAAAAAAMgxQAAAAAAAgBwDBAAAAAAAyDFAAAAAAACAHAMEAAAAAADIMUAAAAAAAIAcAwQAAAAAAMgxQAAAAAAAgBwDBAAAAAAAyDFAAAAAAACAHAMEAAAAAADIMUAAAAAAAIAcAwQAAAAAAMgxQAAAAAAAgBwDBAAAAAAAyDFAAAAAAACAHAMEAAAAAADIMUAAAAAAAIAcAwQAAAAAAMgxQAAAAAAAgBwDBAAAAAAAyDFAAAAAAACAHAMEAAAAAADIMUAAAAAAAIAcAwQAAAAAAMgxQAAAAAAAgBwDBAAAAAAAyDFAAAAAAACAHAMEAAAAAADIMUAAAAAAAIAcAwQAAAAAAMgxQAAAAAAAgBwDBAAAAAAAyDFAAD7s3Xd4nlXdB/Bfdpo26V50A11AoVAoU0UQStnjFRCZAg6UJYr4oggCAi8qioAgU4YiICAbBARktJRVWjpooXvPpM1e7x9owtOkaSEtTe58PteV6+I+z32fnF4hz3PnfO/zOwAAAABA4ghAAAAAAACAxBGAAAAAAAAAiSMAAQAAAAAAEkcAAgAAAAAAJI4ABAAAAAAASBwBCAAAAAAAkDgCEAAAAAAAIHEEIAAAAAAAQOIIQAAAAAAAgMQRgAAAAAAAAIkjAAEAAAAAABJHAAIAAAAAACSOAAQAAAAAAEgcAQgAAAAAAJA4AhAAAAAAACBxBCAAAAAAAEDiCEAAAAAAAIDEEYAAAAAAAACJIwABAAAAAAASRwACAAAAAAAkjgAEAAAAAABIHAEIAAAAAACQOAIQAAAAAAAgcQQgAAAAAABA4ghAAAAAAACAxBGAAAAAAAAAiSMAAQAAAAAAEkcAAgAAAAAAJI4ABAAAAAAASBwBCAAAAAAAkDgCEAAAAAAAIHEEIAAAAAAAQOIIQAAAAAAAgMQRgAAAAAAAAIkjAAEAAAAAABJHAAIAAAAAACSOAAQAAAAAAEgcAQgAAAAAAJA4AhAAAAAAACBxBCAAAAAAAEDiCEAAAAAAAIDEEYAAAAAAAACJIwABAAAAAAASRwACAAAAAAAkjgAEAAAAAABIHAEIAAAAAACQOAIQAAAAAAAgcQQgAAAAAABA4ghAAAAAAACAxBGAAAAAAAAAiSMAAQAAAAAAEkcAAgAAAAAAJI4ABAAAAAAASBwBCAAAAAAAkDgCEAAAAAAAIHEEIAAAAAAAQOIIQAAAAAAAgMQRgAAAAAAAAIkjAAEAAAAAABJHAAIAAAAAACSOAAQAAAAAAEgcAQgAAAAAAJA4AhAAAAAAACBxBCAAAAAAAEDiCEAAAAAAAIDEEYAAAAAAAACJIwABAAAAAAASRwACAAAAAAAkjgAEAAAAAABIHAEIAAAAAACQOAIQAAAAAAAgcQQgAAAAAABA4ghAAAAAAACAxBGAAAAAAAAAiSMAAQAAAAAAEkcAAgAAAAAAJI4ABAAAAAAASBwBCAAAAAAAkDgCEAAAAAAAIHEEIAAAAAAAQOIIQAAAAAAAgMQRgAAAAAAAAIkjAAEAAAAAABJHAAIAAAAAACSOAAQAAAAAAEgcAQgAAAAAAJA4AhAAAAAAACBxBCAAAAAAAEDiCEAAAAAAAIDEEYAAAAAAAACJIwABAAAAAAASRwACAAAAAAAkjgAEAAAAAABIHAEIAAAAAACQOAIQAAAAAAAgcQQgAAAAAABA4ghAAAAAAACAxBGAAAAAAAAAiSMAAQAAAAAAEkcAAgAAAAAAJI4ABAAAAAAASBwBCAAAAAAAkDgCEAAAAAAAIHEEIAAAAAAAQOIIQAAAAAAAgMQRgAAAAAAAAIkjAAEAAAAAABJHAAIAAAAAACSOAAQAAAAAAEgcAQgAAAAAAJA4AhAAAAAAACBxBCAAAAAAAEDiCEAAAAAAAIDEEYAAAAAAAACJIwABAAAAAAASRwACAAAAAAAkjgAEAAAAAABIHAEIAAAAAACQOAIQAAAAAAAgcQQgAAAAAABA4ghAAAAAAACAxBGAAAAAAAAAiSMAAQAAAAAAEkcAAgAAAAAAJI4ABAAAAAAASBwBCAAAAAAAkDgCEAAAAAAAIHEEIAAAAAAAQOIIQAAAAAAAgMQRgAAAAAAAAIkjAAEAAAAAABJHAAIAAAAAACSOAAQAAAAAAEgcAQgAAAAAAJA4AhAAAAAAACBxBCAAAAAAAEDiCEAAAAAAAIDEEYAAAAAAAACJIwABAAAAAAASRwACAAAAAAAkjgAEAAAAAABIHAEIAAAAAACQOAIQAAAAAAAgcQQgAAAAAABA4ghAAAAAAACAxBGAAAAAAAAAiSMAAQAAAAAAEkcAAgAAAAAAJI4ABAAAAAAASBwBCAAAAAAAkDgCEAAAAAAAIHEEIAAAAAAAQOIIQAAAAAAAgMQRgAAAAAAAAIkjAAEAAAAAABJHAAIAAAAAACSOAAQAAAAAAEgcAQgAAAAAAJA4AhAAAAAAACBxBCAAAAAAAEDiCEAAAAAAAIDEEYAAAAAAAACJIwABAAAAAAASRwACAAAAAAAkjgAEAAAAAABIHAEIAAAAAACQOAIQAAAAAAAgcQQgAAAAAABA4ghAAAAAAACAxBGAAAAAAAAAiSMAAQAAAAAAEkcAAgAAAAAAJI4ABAAAAAAASBwBCAAAAAAAkDgCEAAAAAAAIHEEIAAAAAAAQOIIQAAAAAAAgMQRgAAAAAAAAIkjAAEAAAAAABJHAAIAAAAAACSOAAQAAAAAAEgcAQgAAAAAAJA4AhAAAAAAACBxBCAAAAAAAEDiCEAAAAAAAIDEEYAAAAAAAACJIwABAAAAAAASRwACAAAAAAAkjgAEAAAAAABIHAEIAAAAAACQOAIQAAAAAAAgcQQgAAAAAABA4ghAAAAAAACAxBGAAAAAAAAAiSMAAQAAAAAAEkcAAgAAAAAAJI4ABAAAAAAASBwBCAAAAAAAkDgCEAAAAAAAIHEEIAAAAAAAQOIIQAAAAAAAgMQRgAAAAAAAAIkjAAEAAAAAABJHAAIAAAAAACSOAAQAAAAAAEgcAQgAAAAAAJA4AhAAAAAAACBxBCAAAAAAAEDiCEAAAAAAAIDEEYAAAAAAAACJIwABAAAAAAASRwACAAAAAAAkjgAEAAAAAABIHAEIAAAAAACQOAIQAAAAAAAgcQQgAAAAAABA4ghAAAAAAACAxBGAAAAAAAAAiSMAAQAAAAAAEkcAAgAAAAAAJI4ABAAAAAAASBwBCAAAAAAAkDgCEAAAAAAAIHEEIAAAAAAAQOIIQAAAAAAAgMQRgAAAAAAAAIkjAAEAAAAAABJHAAIAAAAAACSOAAQAAAAAAEgcAQgAAAAAAJA4AhAAAAAAACBxBCAAAAAAAEDiCEAAAAAAAIDEEYAAAAAAAACJIwABAAAAAAASRwACAAAAAAAkjgAEAAAAAABIHAEIAAAAAACQOAIQAAAAAAAgcQQgAAAAAABA4ghAAAAAAACAxBGAAAAAAAAAiSMAAQAAAAAAEkcAAgAAAAAAJI4ABAAAAAAASBwBCAAAAAAAkDgCEAAAAAAAIHEEIAAAAAAAQOIIQAAAAAAAgMQRgAAAAAAAAIkjAAEAAAAAABJHAAIAAAAAACSOAAQAAAAAAEgcAQgAAAAAAJA4AhAAAAAAACBxMrf0AAAAAAAA4IsyuE+76Ns9p+541uKymL24bAuOiM1FAAIAAAAAQIvXqUNmnHxAr9hjeEEM7JUb6WkRMxeWxrNvrYyHXl4WpRU1G9XPdw7dKr5z6FZ1x1f9dW786i9zNtew2YIEIAAAAAAAtGhfGtEx7rloeHQtyEpp30pwxJ0AACAASURBVH5g+zhir25x8QkD4qe3fxyPvLp8C42QlsgeIAAAAAAAtFgH7dYlHrlshwbhx6f16ZYTd/9kePzurG0jOzPtCxwdLZkABAAAAACAFqlLflbcdO6QyMnauKns08f2jocv2yHy8zI288hoDQQgAAAAAAC0SBd9o39075i68qOsoiZem1wY/3x7VcxbVt7gmq/s2Ckev2JEdGxvB4i2zv8BAAAAAAC0OBnpafE/X+6e0jZh+po48aopsXBFRV3bIbt3jWvO3DoG9Mytaxs1OD/+8csd4vBLJkdRcdUXNmZaFitAAAAAAABocUYPy09Z/VFYXBXHX/FBSvgREfHk+BXxlR++F69OLkxpHzUkPx65dHvlsNowK0DauPT0iKFDMqNnz/To3CktOnf6JBMrLKqJZctrY+7c6pgztzpqa7fwQAEAAACANuXTKzoiIh5/Y0UsXV3Z6LkriirjyEsmx90/GRYH7961rn30sIJ45NId4shfTI61pdWbdby0PAKQNigrK+L4Y3PjmKNyY889sqJTx7Qmz19dWBtvjKuMRx4ti0f+UR5Fa6QhAAAAAMDm1bNTdsrx1LklTZ5fXlkTJ149NW6/YFgctU+3uvbdhxfEI5ftEEdeMjmKy4QgbYkSWG3M/xydE1Mndo3bbi6IsWOyNxh+RER06pgWY8dkx5/+WBAzpnaLSy5uH+3abfg6AAAAAIDPq7om9UHskvINhxeVVbVx+m+mxdNvrkxp32N4QTx86fbRPlc5rLZEANJGpKVFXH1Fh7jvzx2jX7/P/0veqWNaXHxR+5jwepcYNtQCIgCgccVlNTF/eWXMWlIRC1ZURnFZzZYeEgAA0MosWpm618eIQe036rrKqto4+Zqp8dLE1Snte23fMf7+i+2jQzshSFthBruN+PEP8+L8c/M2WX+Dt82Il57vHPuPWRUfTKnaZP0CAK3T4lVV8dBrq+P599bG+7NKY/GqhvcHW3XJih0H5cYBO+fHMXt1jB6d3IoCAADr99HC0pTjr3+5R1xz/9wGm6A3pqyiJo67Yko89ssdYvfhBXXte+/QMfbcvuMmHystkxUgbcDInTLjsks6NGhfs7Y23hhfGW+9XRllZfXLyd6bWBWHHLk6jvp6Yfzk4rXxwENlsbqw4b4fnTulxd//1jHa5ymHBQBt1dLVVXHWTfNj2HemxYV3LIrn3lnTaPgREbFwZWU88/aauOC2hTH0O9PiBzcviOVFHqQAAAAaN/HjtTFrUVndcX5eRjxy2Q4xvP/GPehdUlYdx1z2QUz8eG1Ke7rpzDZDANIG/ORH7SP9Uz/pmpqIK64qjoHbLo99v7Yq9t53VWy73Yq4+75P3kxG7pQZ11zZISa8XRm/u74kTjqtKPpvszzO/eGaWLEytXzFoIEZccH5m25lCQDQevzz3TUx8pwP467nV0VFVcOHJZpSXlkbdzy3Mkae/WG8+P7aDV8AAAC0ObW1Efc8vzilbbsB7WPcDaPi9et3iTMP7r3BPgqLq+LISybHtHlNb6BOMglAEq5D+7Q47JCclLYLfrImLv9Vcawtrp+oWLasJs78blHc8edPlpXtsH1m3HVrQV1wUl5eGzffWhp7fmlVzJmbutnQmd9qF1lZm/ffAQC0LH9/rTCOvnJOrF674U0Im7JyTXUcefnseHx80SYaGQAAkCTXP7IgPphdnNKWnvbJfiBD+23cg9nLCyvjkP99P2YsKN3wySSKACTh9twzKyWcmPxBVfzxlvX/ov/4J2ujsOiTYORr+2fHkYenhidz5lbHaWekTlD06JEeO+8kAQGAtmLirNI44/p5UV3T+KqPbXpnx+G7F8S3DuwS5xzeLb51YJc4bPeCGNQzu9Hzq6pr49Tr5sXkOWWNvg4AALRd5ZU1ccZvpsfKNZXN6mfp6so48pLJsWB5+SYaGa2BnScTbtCAjJTjhx8tj9omKlSsLa6NZ54tj+O+nhsREaef2i4efjT1TeG1NypjytSq2G54/f8+O47IjDffat6bEADQ8tXURnz3hgVRXpl6Q9EhNz3OObxbnHZAl+jTdf0PRsxZWhG3PbsybnpyRZRW1JfWLK2oie/eMD9e+b9t1eMFADbKsuXlMX9hfUmbXj1zo3fPdltwRMDmMnl2cez3o4lxy3lDUjY0/6zmLi2Lw342KZ69Zqfo3tED3W2BACThOndOXeSzcGHNes6sN3de/Tl77tn4G8G06dUpAUiXLmYqAKAteGxcYUyclbqadFjfnHjwpwNjm96Nr/D4tAE9suPyk3rFCft2iq9fNSc+XlxR99o7H5XG028VxSG7ff4/aACAtuOhx+fFDy9+r+744gu2i59dsN0WHBGwOX20sDS+duHE+MqOneKwPbvGdgPax/zPsZpjxoLSOOLnk+LHx/ava5s6t7iJK2jNBCAJt3KdTcu7dt1wUPHpMKN9Xlp07ZLeYPPz/A6p/ZQonwcAbcLtz61MOe7cISMevnhgDFxPeav1Gd4vN/5+8cD4yk9mRlFJ/X3Gbc+uFIAAAADr9fL7q+Pl91c3q49Js4rj5GumbqIR0ZLZAyThFqyz4mPMAU1PTqSnR+y3b+o5leuUuMjNTYuddkzNzhYubN4GqABAy1dUUhP//iD1yajzj+z+mcOP/xraJyfOOqRbStvLk9ZGSfmGV6wCAADAhlgBknDTplelHH9pn+wYOyY7nn62otHzz/xWuxg0sH7fkJWraqJoTWoAcv45edGjR2p29v6k1O8DACTPpNmlUVFVf1+QlhZx2tc6N6vPM8Z0iasfXFp3XFZZG5PnlMXoIXnN6hcAaNluuG1G3HT7zGb1UbQmdS7ixttmxl8empPSdtbp28YPzhjcrO8DQOslAEm4j2dVx+QPqmKH7T/5UaelRdx9Z8f4zllFKZubZ2R8En5ce3WHlOtff6N+Y/OePdPjgnPz4tyzUyck3n6nKmZ+ZAUIACTdjIWp9XW3658bXQuadzu5VZes2LZ3TsxcVN/3hwvKBSAAkHCrCytj1pxNW3N/dWFFrC6sWKetcj1nA9AWCEDagN//oSRuvbm+lnZBflr89Z6O8eGM6pjwVmVkZkbsuXtW9O+f0eDa2+8sq/vvKRO7Rof2DfcQuf7Gks0zcACgRVm1NvWBhwE9Pl/pq3UN6pWdEoCs+30AAAA+bWi/vDhx/56x386d4/5/LYk/PLpgveceukfXOP+YvvHie6vjnn8uiblLy9Z7LskjAGkD7v1rWZx6SrvYe8+slPYhgzNiyOCGocd/vfBiRTzzXP1kRGYjpz7xVHnc/4A3DQBoC0rKU8tidszbNNvJdemQepOxptQeINCWlJaURnl5eeTk5ka7drlbejgAQAvWJT8rrjlz6zh23x6R/p/ntP/+76b/LsnMSIvRwwpi9LCCOO/ovnHz4wvjmr/NjbWlHrxqCwQgbUBNTcQJJxfGC890jm23WX/g8Wlz5lbHKWcURU0T8w//eqkiTjujaBONEgBo+VIDkMyMhitDP4/srNR+amtr13Mm0JrV1tbGuDfGx3PPPBcT350YH0z6IJYtWxbV1fWTD1lZWdG9e7fYYccRsdPOO8WBBx0Qo3cfvQVHDXyROnXMjmMO67vR50+ZXhhvTFhRdzx8SEEMH1qQcs52QwrWvQxopQb3aRePXLZDDOj5+R+YyM1Oj/OO6RtjdusSR/9icsxfXr7hi2jVBCBtxOLFNbHvAavijlsK4sADmi5X8fwLFXHK6UWxfEXj6UdxSW3ccFNJXHl1SZSXm6AAAADWr6amJv58x5/jD7+7IT6a+VGT51ZWVsbChYti4cJF8dwzz8W1V10bg4cMjrPP+0GcdOpJkZ6+aVaeAS3T6sKKmPHxmrjh/3aJwVvnb/D8P945MyUAOfqwvvGzC7bbnEMEtpCenbPjH5ePiH7dczZJf8P758VjV4yIL5//rpUgCefusQ1ZtqwmDjt6dYw9fHXc/0BZzJ1bHbW1EeXltTFjZnXc/0BZHDB2VRxy5OpGw4+HHy2Pcy9YE8NGrIhLLisWfgAAAE2aO2duHLTf2DjvB+dvMPxYnxkfzohzzjo3DtpvbMydM3cTjxDYUr598tZxwv8MaND+yuvLYvevPR9X/GZKVFQqiwl84sazBzcaflRV18bKNZVNXltUXB3ljbyfDO7TLi4/ddAmGyMtkxUgbdCL/6qIF/9V8ZmvO+1M5a4AgHpzllbEw68XbpJ+gOSZO2duHDrmsJgze84m6W/8uPFx0P5j44lnH4+tt9l6k/QJbDk9uufG7dfvFkcf1jfOveidWLCotO610rLquPI3U+KxpxbEjdeOit126bIFRwpsafvu1CnG7Jb6PlBTG3HDo/Pjtw/NjxVFTQcgL763KrY+aXyce1SfuODr/SIjvb4E7+lje8f9Ly2N8VPNeyaVAASAZsvLSYvdtk2P3p3SoqIqYtqCmpi6oCaU8Ydke2VycbwyuXhLDwNogSoqKuLrRx7bZPjRvXv3GLT1oMhrnxd5ee2ipKQ0itcWx6yPZ8Xy5csbvWbB/AVxwtdPiFfGvRLZ2U2X9gVah0MO6B377H5gXHzFpLjjvo9T/oaYNLUw9j38X3HaCYPiqkt2jPwOprGgLTrlwF4N2r5//Ydx7/NLNrqPouKquPzeOTF1bknc8aNhkfafDCQtLeK8o/vGN66csqmGSwvjkwOARm3TMz2265senTqkxcdLamL8jOqoWqcsZmZGxI8Oz46zxmRFh9zUTYxnLq6JX/ytIp5+t+oLHDUA0BLcdP1NMW3qtAbte++zV5xy+imx/wH7R7du3dZ7/dKlS+Ofzz4fd/zpjnhrwlspr02dMi1u/P2Ncf6Pz9/k4wa2jI4FWXHD/+0Sxx/dP8760dsx4+M1da/V1NTG7fd+HE/9c1Fcd+XIOOLgPltwpMAXLScrPcbsmrr645FXl3+m8OPTHnplWYwd3SWO/UqPurYDRnWOvNyMKCmzF0gS2QMEgBSDeqTHX87LjTevzos/n50bvz8tJx6/qF2M+1Ve7LpNRt15mRkRd30/Ny48IrtB+BERsW2v9Lj3nNz4wdisL3L4AMAWVltbG7f96faUtvyC/Ljnr3fHU88/Fcd947gmw4+IiB49esQ3TzohXvj38/HH2/4Y7drlprx++613RK2lppA4++zRLcY//7W44PtDIyMj9W+MRUtK4/gz3ohjTnktpVwWkGy7Ds2P/LyMlLbfPzy/WX3e+OiClOOcrPQYNbhDs/qk5RKAJNwhY3Pixuvz674OGdtws6DP48QTcuPpxzrVfZ14Qu6GLwJavO37pcfTF7eLg0Zm1i0H/a+te6bHwz/Oje36fvLRceb+WXHwLk0vJExLi/jlcTlx6leFIADQVrz/3vsxb+68uuO0tLS469474/CjDv9c/Z1w4jfixltuTGmbN3deTJo4qVnjBFqmdrkZccXFI+L1Z/aPkSM6NXj9qX8uilFffS5uuG1G1NgjHRJvqy6pJS9XramKd2auWc/ZG+fdj9ZGYXFqtYpt+7RrVp+0XEpgJdwuO2fGGafV/wIvXlwTTz5d3ui5J56QG988vj7IuO/+srj3L2WNnjtoYEbs99X6N6DXxzW92RDQ8uVkRdx9dm706NhwNcd/dchNi2tOzImjri2Nsw/e+Lrblx6bHU+9UxVLCz2pCa3ZwbsWRO/Omz/Q3Hkbf3xAazZ92vSU472/tHd87cCvNavPY449Jn5z7W/jg0kfpHyfHUfu2Kx+gZZrx+07xStP7Be/vmF6XPP7qVFeUZ92FBZVxo8vmRgdCzxoBUnXu2vqw9zzlpU3e7/R2tpP+unYvn5qvJM9hhLLT5Y6Qg1o284Zmx2Demx4YeBeQzPisF0zo1en+qCkvDLiqXeqYu7ymujZKT0OHZWRUharoF1anH9odvz0vsYDWKB12HmbdsIJYIMWLVqccjx6j9GbpN/Ru49OCUAWL/58tb+B1iMrKz1+ev7wOPaofnHWj96OV15flvJ6YZF5C0i6rMzUhzQzM9Zz4me07qOf6euWwSAxlMACICIiTvhSaia+aFVtnHVrWex3aUmceXNZzF3+yRNXaWkRV51Q/wTGwpW18eVLSuL0P5bFZQ9WxFm3lsUe/1sSMxalrkc/bFTDsloAQPKkrfOBv7n26lj3+wDJtc3ADvHMg1+JG/5vl8j3lDa0KUXrlKraqmtOpDfzFiA9LaJPt9SVJeuWxCI5BCAAxIj+6TGge/1HQnVNxDG/Lo37X6uK92bXxN/HVcUR15RF+X8esPp0mazv3VrWIOxYuLI2Tr+pLGVZ6lZd0mLH/j52ACDpevXqmXI8/vVxm6TfN8eNTznu2bPHJukXaB3S0iJOP3HrmPjvMXHYmK229HCAL8jMhaUpx506ZMYuQ/Kb1efOg/MblLz6aJ3vQ3KYiQIgBvdO/Th4bEJVTFuQGmrMWVYTf301dYn5lPk18e+p1Y32OXleTYyfkfrawI0osQW0PR8uKI8X319b9zVrScWWHhLQDEOHDU05fv21N+LpJ59pVp8P/PWB+GDylJS2YcOHNatPoHXq3bNdPHDnXnHfLXtEt3X2BgCS592Za6OqOnU16blH9W1Wn2cf2SfluLqmNiZ+VNysPmm5rBsEoMHG55Pm1jR63ktTquPUr9ZvNDhhZuPhx3+9O7sm9hhSX6CzZxMbrAOtz+q11fHnF1fFG1OLY9aSiqipjRi8VU6M2SU/jv1Sx2iXvXGh581Pr4ibn1pRd3zxcT3i4uN6NnEF0JLtOHLH6Ne/X8ybO6+u7fRTTo8/3HR9HHPsMZ+5v/vu+Uv88OwfprQNGDggRuw0otljBVqvow/rG1/bt2esWFn/4ETnTjZFh6RZvbYqXpm0OvYb2bmu7ci9u8XxX+0R9/9r6Wfu76h9usXR+3RPaXt1cmGsXGNPoaTyKC4AkZuVGkysKWu8Vve85anByPI1Tdf0rqxKfT0vRwACSfHK5OIY8YMP46d3LYrHxhfFpNll8cGcsnj0jcL43o3zY8fvfxgPv164pYcJbAFpaWlxxrdPT2krXlsc3zr59DjgKwfG3XfdEwsXLGyyjwXzF8Sf77w7vrrPfnHWmWdFWVlZyuunr9M/0DYV5GfFoAHt6746dcze0kMCNoObH29433DTOUPijIN7f6Z+vrl/z/jT+UMb7E96yxNN35fQulkBAkAsK0oNKvp0aTyoKFvngYiqpheARL+uqTn7hgIToHV4+q01ccK1c6K8cv2/0wtWVMaJv54bZ4zpEr8+favIzhSAQlty1jlnxV/vuz+mTZ2W0v7m+DfjzfFvRkREQceC6D+gfxTk50d2Tk5UlJdH0Zo1MXfO3CgqLFpv39uP2D7OOvt7m3X8AEDL8cyElfHa5MLYe4eOdW1ZmWlx3fe2ja9/uXvc9NjCeOHdVbG2tOEkRfvcjPjqyE7x3cO2iq/s2KnB6xOmr4knx61o0E5yCEAAiIWrUld2HLhTZvzywebV4M/JjNhzaEZK25LVjZfWAlqPlWuq47s3zm8y/Pi0255dGTMXVsT9PxkQBXkWH0NbkZ2dHQ/948E45MBDY87sOY2eU1RYFJPfn/yZ+u3Xv1/85YH7IitLmRsAaCtqayO+d/2H8fJvdo7O+anT2Xtt3zH22r5jVNfUxswFpbGssDKKS6ujfbuM6NYxKwb3aRcZ6Y0/jLWmpDq+c930qPGsZqIJQACI8TNqoqwiIvc/K8a365seh43KjMffrko578OFNbH19+s3BitrYgL05H2zolen+puM6pqId2YJQKC1+9UDS2JZYep7Q25WWuw6OC/a5aTHtHllMW956nKxlyatjUMu/Tie+MWg6Ng+NRgFkqtf/37xxLOPx7dP+3a88fq4Zve39z57xZ/u/FP07de8jU+B1mttcVU8+uSCeGPC8li4uDSWLCuPnOz0GLJNfuz35R5x2EF9Iq+dew1IolmLyuLYyz+IRy7bITo08nuekZ4WQ/vlxdB+G9dfSVl1HH/llJixoHQTj5SWRgACQJSU18a/PqiKsTvXfyzc/J3cGPx4RTz4emXMW/FJ0FFdE7G6uOlHI3KzI076clb88viclPY3Z1bHCiWwoFWrrqmNB19N3ddj9JC8+MuF/WOrLvVPYz/xZlFceOeimL2kfiXZ2zNL47Bfzo4nfjEwCvJMTEBb0X9A/3j6hafjnj/fGzf+/sYGJbE2xnbbD4+zzz8nvvHN4yNt3aLdQKv1+pvL440J9WVn9t69W+yxa9f1nn/vA3PiwksnxqrVDVeqj3trRdz9t9nRo3tuXP6/O8TJxw3cLGMGtqxxU4ti/x9PjPt+Ojy27dPuc/cze3FZnHjV1Jj48dpNODpaKgFIGzN8WGYcc1TOel/7vOcCrd9vn6iMg0Zm1m0G1i474mfHZEdpeW388bnKpi/+j5zMiLl/7BCZjcxt3vWvjesDaLnGTy9JWf3RsX1GPHDRgOjRKfW+4NDRBbHnsLw44dq58e8P6leNvTWjJI64fHb84+eDlMOCNiQtLS1OPvWkOPnUk2LCmxPi+edeiInvvhfvT5wUK1eujNKS+icv89rnRdeuXWPHnUbEjjvtGGPGjomdR+28BUcPbC4v/ntpXPmbKXXHv7hw+0YDkJqa2vjuBW/HPX+bvcE+ly4ri++c/1a8Pn553PTrUZG+nrI3QOs1ZU5x7HnOO3Hu0X3je4dtFV0LNr4s5qo1VXHLkwvjuofmRUm5ChVthVnsNuaYo3LWG2o051yg9Xv7o+q479+VceKXm1FTOy0aDT/e+LA6HhpX1fAFoFWZszQ1yDxi94IG4cd/dS3IjMcuGRQn/npuPDmhfjPj8dNL4sgrZsU/fj4o8tsJQaCt2W30brHb6N1S2iorK6N4bXF0yO8QmZn+RAVSXfnbqRsVfnzan++fHV275MSVPxuxmUYFbEllFTVxzf1z4w+PzI8xu3WJA0d1iRFbt48hffOiXXb93xilFTUxY35pTJq1Np57a1U8M2GF4KMNcncJQJ0f3V0e3QrS4qCRm+7jYc6ymvjuLWVRq/oVtHpLVqcGmcP75zZ5fk5WWvzlwv5x2nXz4uHX60tnjZtWEkdePiv+ccmg6JArBIG2LisrKzp17rSlhwG0QBPeWRlX/25qo68N6Nc+unbJjpKS6vjwozVRs84uxr+7+cM4fOxWsfuo9ZfVAlq3kvKaeOTV5fHIq8vr2rIz0yIvNyNKyqqjospEBBH+4gSgTkVVxKk3lMVVD1dEYUnzbxTem10Th15VWreHCNC6Zaxz55iXveGyElkZaXHn+f3i4N0KUtrfmFYSR10xO9aWeQILAGjcdTd/2CDYOGj/XvHuywfGtPFj47Wn9493Xz4wZr93aPzgjMHx6W2Campq46rrGg9PgOSqqKqN1WurhB/UsQIEgBQVVRHXPlYRv3+qInYckBHLiz7DTUNtxJT5NTF1fk08/nZVPPl2VVSb24TE6N0ltUTe+7PLNuq6rIy0uPdH/eOYK2fHv96v32jwtSnFcfQVs2NQr+xNOk5gy5o6ZVpM/9Rm50OHD4vh2w3bgiMCWqsXX1mScnz80f3j9ut3a7C3R/duOXHtL3eK/n3z4sJLJ9a1P//yklixsjy6dlHeG6CtEoAk3JNPl8eiRZt/9vGd92xuDElTURXx1kfVn+ma8qqIfX5WsplGBGxp2/ZODSoefHV1/PTYHrFVlw3vHZSblRYPXDQgDvvlrBg3rf594tUpxfH61OImrgRam0cffjSuvuLquuOLfnZRDN/uokbPXbRocSxZtLjuuGfvXtG7d6/NPkag5Vu1uiIKi+rnGjp1zI7f/WrnJjc2/8GZg+O+h+bExMmrIyKiuro2xr29Mg45oPdmHy8ALZMAJOHeebcq3nnXxsMAQPPtNKhdbN0rOz5eXBEREUUlNXH4L2fHPRf0i+H9mt4PJCKifW56PHLxwDjoklkxcVZpXXuN1enQZt11+10NwpKf/qzxsARoW5YsS11pOma/XtGxoOmHLtLSIo48uE9dABIRMWvO2iauAFqrof3y4sT9e8Z+O3eO+/+1JP7w6IL1nnvoHl3j/GP6xovvrY57/rkk5i7duJXsJIM9QAAA2ChpaREn7dc5pW3K3LLY7bwZsfsPZ8SfnlmxwT46ts+Ix38xMIb3U4oCAFi/Lp1SV57275u3Udf16pn6UEZxsYdCIUm65GfFrT8cGm/eOCrOO6Zv7Lh1+8jKbHqKOzMjLUYPK4iLju8fb/9xVFx+6qDo0C7jCxoxW5oABIAY1ic9jtgts+5rWB8fD0Djzjuie2w/IHVioaY2YtLsspg2v3yj+uhWkBlPX7Z1DOkjBAEAGteje25K6LF27cYFGfMXlqYcd+nsfgOSYnCfdvHKdSPj+K/2iCaq4TUpNzs9zjumb7z465HRt5v3h7bADBcAccRumXHn93Prvo7Ybf0VEnt1SouRA9Prvnp1+px3HUCrlJOVFnee1y+65DfviakenTLjHz8fGH26bnj/EACgbTruqP51/z3u7Q2vNI2IeP6l1I3Te/facJlOoOXr2Tk7/nH5iBjQc9P8Tg/vnxePXTHCSpA2QADSRg0bmhm/urxDvPlalzj37KaXkR5+aE68/ELnuOTi9jGgvzcFaOtO2TcrXrw0r+7rlH1NXkJbs8OA3Hjp6m1ij2EbV4pifQb0yI4nLx0U3Tvalg4A2roVKytidWFFStsPzxoSfXq3i4iI9yatinffX9VkHw88Oi/GfyooSU9Pi1136rLpBwt84W48e3D0695wxUZVdW2sXFPZ5LVFxdVRXlnToH1wn3Zx+amDNtkYaZn8tdnGdO2SHr++pkMcf2xupP8n/nrw701fk5kZscforNhjdFZccF5e3HhzaVx1TXGsWWvHUgBoq7btnRMv/mqbeGnS2nhsfFFMmVsWfT/Hao4hfXLiiV8MimseWlrXtjEbqgMAyXLDO45IrAAAIABJREFUbTPihttmRH6HzOjXJy/6982Lfn3yYs/dusVDj82L2tqI717wdrz8xFcjNyf14czFS8ringdmx5W/mZLSvvfu3RrsCQK0Pvvu1CnG7JYaZtbURtzw6Pz47UPzY0VR0wHIi++tiq1PGh/nHtUnLvh6v8j4VP2s08f2jvtfWhrjpxZtlrGz5QlA2pAhgzPi8Uc6xcABn38VR25uWlxwXl6MHZMdhx29OubPb5ieAgBtx74jOsS+Izo0q48RA3Pj3h/13/CJAEDirVlbFVOmF8WU6Q0nI6dML4y0tIYleAft/ESjfZ397cGbfHzAF++UA3s1aPv+9R/Gvc8vaeTsxhUVV8Xl986JqXNL4o4fDYv/vpWkpUWcd3Tf+MaVU5rugFZLCaw2omfP9HjqH80LPz5tu+GZ8fRjnSO/g9r/AAAAwOa3zcAOkZO9cVNZRx7SJw4bs9VmHhGwueVkpceYXVNXfzzy6vLPFH582kOvLIsHX1ma0nbAqM6Rl6vsf1IJQNqIW24siH79Gv4iV1VFrFzZdCmrwqLaKC9veM6QwRlx5eXNe+ITAAAAaHv6982L4UMKIr/DxhcnGT60YKPO+/Je3eOW3+76eYcGtCC7Ds2P/LzUOc3fPzy/WX3e+OiClOOcrPQYNdgcZ1IpgdUGfHXf7Bg7JjulraYm4vobSuLa35bE8hVNl7F64cWK6Lf18jj/3Ly48IL2kfGp95xvn94u/np/WbwxvulaewAAAAD/dfJxA+Pk4wZGRMTa4qqYv7AkFi8pi4WLS2PBotJYvKQs5i0sicVLy2LBwtJYsqwsthvasck+s7LS44wTt45fXTKiwT4hQOu0VZfUOc1Va6rinZlrmtXnux+tjcLiqujYvn5qfNs+7eLfkwqb1S8tkwCkDfjWKQ03/Pru94viz/eWbXQfhUW1cenlxTFlanXcfUdBSp28H56XF1//hjcIAEi6pyYUxVNv1/+xcfCo/Dh4t417ErMp9720Kv760uq642/s2ym+uW/nZvcLtAzTpk6LR//+6Hpf29hz1zV0+LAYvt2wZo8P2PI6tM+MYYMLYtjg9d9XVFfXRlV14xUsfnDm4Bg+pCAO/lpvm55DwvTumpNyPG9ZedQ2Xcxmg2prP+nn0wFIp8+wGo3WxU824XJy0uKgMalvFH9/pPwzhR+f9sBDZXHI2Ow4/tj6G4oxB2RH+7y0KC5p5rsPANCivftxadzx3Mq6496dM9cbgHyWUGP2kop48f21dcd7Ds/bRCMGWoJH//7oRocan+Xci352UQzf7qLmDA1oRTIy0iIjo/F9SK+9bKcveDTAFyUrM/X3PnMTLe5a990kPc0+x0llD5CEG71rZhTkp/4C//b3Jc3q8/obU6/PyUmLUaOymtUnAJAs/w01/vs1e0nFlh4SAADQyhQVV6Ucb9U1J9KbmVWkp0X06Zb6wHjhOt+H5BCAJNxWW6XGoitX1cTb7zRvv4533q2K1YWpqz2GbKu2JgAAAACw6cxcWJpy3KlDZuwyJL9Zfe48OL9ByauP1vk+JIcSWAnXu3dqxjVvXs2mqZM3rzo6dfxUnbxOlolBkgzrkx5H7Nb4R8SwPukbfe66pi+siWkLapo9PgAAILkqK2siK6vxZ3ZrampjzrySWLi4NJYsLYv8/KwYsk2HGNCv/Rc8SuCL8O7MtVFVXRuZnyqBd+5RfeOkq6d+7j7PPrJPynF1TW1M/Kj4c/dHyyYASbjsdSpTZW6in/i6ZfHSrSWCRDlit8yNDjU+y7nXPFoR0xYogwMASTb24IOid+9em/37jNx55Gb/HsAXZ8nSsrj691PjiWcXxe+v2jkOPqB3yutr1lbFb2+aHnf9dVYsXtJwX9NtBnaIM07aOr5z2jbRLleVCkiK1Wur4pVJq2O/kfX7CR65d7c4/qs94v5/Lf3M/R21T7c4ep/uKW2vTi6MlWuaVzGHlksAknBFRanLPbbaKiPS0yNqmvEAdnp6RJ8+qTcThYU2QAcAACJG7jIyRu4inAA23iNPzI/vXvB2FK1nAvKdiavilLPGx8xZa9fbx0ez18ZPL38/br/34/jLbXvGiOEdN9dwgS/YzY8vTAlAIiJuOmdIdGiXEbc9tWij+/nm/j3jd2dt2+DB7lueWLgphkkL5bn9hPtwZnXKcedOabHrLs3bsHzUzlnReZ2SVzM+ql7P2QAAAACN+/tj8+Pks8avN/yYPLUwDjzm5SbDj0+bOWttHHDUSzFpauGmHCawBT0zYWW8Njn1dzorMy2u+9628ezVO8YRe3WLDu0aX/nVPjcjDt2jazxx5Yi4+bwhkZudOh0+YfqaeHLcis02drY8K0AS7t13K6OqKrX01fnn5sU3Tvr8NwLnnt0u5bi6OmLixKrP3R8AAADQ9ixZWhbfv/DtqKpqvKrEmrVVcdzpb0RxyWebcygsqozjT38jJrxwQOStZ1IUaD1qayO+d/2H8fJvdo7O+anT2Xtt3zH22r5jVNfUxswFpbGssDKKS6ujfbuM6NYxKwb3aRcZ6Y3vXbympDq+c930qFHYJtEEIAm3anVtvPxKRey/X3Zd29FH5sQJx+fGX+5vWDNzQ445Kif+5+jclLZ/v1oRK1ba1Bhas2ffq4rFqzf/J/7E2VaLAQAbNnvW7Jg+bXqUlZbFoK0HxfYjto+MDJOYkDS/vPaDKCxKXfnRvVtO9N3qkwcvb7lrZnw8O3XlR0ZGWhw+tk8cckDv6NUzN5YtL4/nX14SD/1jXpRX1M9NfDx7bdxw64y48Jxhm/8fAmx2sxaVxbGXfxCPXLZDo6s9MtLTYmi/vBjab+P6KymrjuOvnBIzFpRu4pHS0ghA2oAbby5NCUAiIv50U0Hkd0iLW27b+F/yk7+ZG3/4XX6DOnk33eKNAlq792bXxHuzBZkAwOYxfdr0eP+99yMiYseRO8bQYUMbPe+N18fFzy/6eUx4c0JKe7/+/eJ/L/nfOOHEb2z2sQJfjIrKmnj4iQUpbaNGdo6n/vblKMj/pHT33x6Zl/J61y458cAde8Zeo7ultB9/dP8497tD4uunvh5z5hXXtd9850fxox8MjfT1PP0NtC7jphbF/j+eGPf9dHhs26fdhi9Yj9mLy+LEq6bGxI83rrQerZs9QNqAp54pj3+/lvpERVZWxPXX5ccLz3aOo47IifwOjd8MdGifFocfmhPPPtEpbr25IHJzU88bP6EyHn+yfLONHQAAaL0+/ujjOO7o42P0yN3jjFPPjDNOPTNGj9w9xu4/NmZ8OCPl3FtvvjUO/trBDcKPiIh5c+fF9874XvziZ5d+UUMHNrNxE1bE6sKKuuP09LS4/frRdeFHTU1tfDhzTco1d/9x9wbhx3+NGN4xHrxrr8jKqp/qWrSkNCZOXr0ZRg9sKVPmFMee57wTV9w3J1YUNb530PqsWlMVV98/N3b/wdvCjzbECpA2oLY24tvfK4rXXu4cXTqnZl777JUV++zVMaqrI2bMrIqly2qjuLg22rdPi+7d0mLI4MxY30rzojW1ccZ3iqLGQ+MA0CZNnVceD7/e+L5iU+eVf+5zgWSY8eGMOOSAQ2PJkiUNXnv9tTfiwH3HxNMvPBXDhg+Lfz77z7jwhz+Jmg38cfG7X//u/9m77/CoqvyP45+ZZNILSYAQAgk9BKkCUgTFQhUVxbrYuyKoq2vf/bkKKmvvHRTFFUXAgkhVmiIqXRI6CS2k9zKZ8vtjloQhhYQkhNx5v57H5/HeuXPuSRtmzuec81VERIQmPzCpoboN4BQ5dqWGJJ3ZK0xxnYLLjo+kFctaWv6acFbfcJ0/tGW1bfaID9Ulo1vr628PlJ3bkpCjPj3D6qnXAE4HxVaHpn2RrDfmHdDI/uEa0TdcPToEqkubAPkfU+S8yOrQzgNF2rI3X4v/yNKPv2eosISBTE9DAOIh9uy1a/xVOfp2XrNKV3t4eUld47xVxUr0CgoKnbrimhzt2Ml+/oARdI02K651+ZuE7YccSjzImwIA1Zv7S06VoUZdrgXQ9JWWluraK/5WafhxVGZmpu6+/R4t+Xmx/vHAwycMP456bspzuuLqK9S6dVR9dRdAI0hNd58AEds2wO04KNDidty/d3iN2h3YN8ItAElLZ6IFYFSFJQ7NW52ueavTy875eJsU4OelwmK7rDaqm4MAxKP8srZU516QpdmzQtW508kXENy7z65rrsvRxk22euwdgMZ0aX9vPTKuvFbQtPlWJR60Vnptq2YmtWpWHqSmZDtPSQF1AADQdEz/YHqFLa4qs/6P9Xr7jXe0d8/esnNms1nDzh+mM7p3U35+gRb/uFgHD5TXCSgsKNQrL7yiF175T4P0HcCp4XVcXY6SYvcQNDjIWxHhvsrIdAUYphrW8fDxcd/54vg6pgCMzWpzyprPmCXKUQPEw/y1zaZ+gzL17ykFSs+o3ezuzCyHpj5foDMHZBJ+AB7sxmEWLX8qoOy/G4dZTvwkAADgUWZ8OMPtODIyUi+99qIWLFmg1995XTGxMWWPTXlqStn/h4WH6YelP2je93M15fkpevXNV7R+65+65m/XuLX3/TffyelkAgbQlLWK9HM73rAlSw6H+9/1uDHR5Y9vzqpRu1sT3FectojwPckeAgCMgADEAxUXO/XstAJ17pahv92Qo08+K9bGTTYVFbm/0SgqcmrTZps+nVWsCTfmqGPXDD09tUCFhXzQAAAAAFC5Pbv3KGFbYtmxn5+ffli6QLfdeZuGDD1bN958g5auXKLwcNd2NiUl5dvTvD/9PQ0aPNCtPT8/P73x7uuKO2a/3kOHDmvr5q0N/JUAaEj9+rhvaXXwcJG+/u6A27k7buooLy/XEo41v6Vr3Z+Z1baZll6i2fP2u53r0a1ZPfQWQFPWItSiPp2Cyv6LCvc58ZNgGGyB5cEKC536el6Jvp5X/oHDx8ekwACpoFCyWgk6AABAuTH9QhQV1vCrvvp09G/wewBoOJs3bnY7vv6m69Wpcye3c5GRkZp0/73697+eLjvXo1cPjRg1otI2fXx8dNOtN+mxfzxWdm7P7j3q0atHPfYcwKnUqX2QenVvpk1bs8vOTX50g9pGB2hgvwhJUs9uoXr8gXg98+I2SdJ1d63VD1+eo07tgyq0l5Vt1VW3/KLcvNKyc+FhPup5RmgDfyUATneXD22hF+/sWHb83H+T9eznSY3YI5xKBCBwY7U6Za18238AAODh+nT0J5wAcEKpqaluxwMGnlXpdYOHDnY/Pntwpdcd1fvM3m7H1RVYB9A0PDK5q/52x9qy4+wcq0aOX6E7buyou27pqI7tgvTo/fEqKLTrlXe2a//BQg0euVST7uiicRdFq21rfx1JK9Hi5Sl69d0dOpRS5Nb+7Td0lLmGtUMAAMZEAAIAAAAAqDf5eflux81bNK/0uubN3c8HhwRX225wkPuM7+PvA6DpuWxsG102to3mfV++9ZW11KE3P9ypNz/cqbhOwereLVSRzf10RtdQbU3IUV6+Tc++vE3Pvryt2rZbtvDTpNs7VXsNAMD4CEDgJiDAJF8fqbhEFWqCAAAAnAp5RQ4F+1OqDmiqIppHuB3v33+g0uv2J7vv03/kcEq17aalpVV7HwBN0wev9lNWtlU/r06t8Nj2XXnaviuv1m1aLGZ99u4ARYRTAB1o6u65JFp3X9y6Tm0EB3i5Hd99cWtde15Lt3PvfHdIb397sE73wemJAMRDmUzS4IEWjRrpqz69vNWju7datDDL65jXg9JSKS3Noc1bbNqwqVQ/LrJq7brSqhsFAAA4SQfSS/XN2hx99lO2xp4VrCeujmzsLgE4SS0j3f9+F37/g2646foK1307/zu34+XLfpLNZpO3d+UfU9es/sXtuEXLlpVeB6BpCQzw1jezhujJqVv09ke7ZLfXbTJmi+a++uTtARo6qEU99RBAY2oW5K12rfzqvc1mQd4VzsGYmFrnYcxm6fZb/LV1Q4SWLw7Tww8GaPiFPmrVyj38kCSLRWrd2qxRI3302MOBWrEsTFvWR+jWm/xl5jcHAADUUXa+XbN+ztLYp/Yq7s5E/WP6YW3aW3TiJwI4rQ0YdJa8jvlwsXDBj/rh+4Vu16xZ/Ys+/fhTt3MHDxzUO2++W2mbaWlpmvHBDLdz3XucUU89BtDYfCxm/eepXvrlxwt02dg2slhqP+jg7+elO2/qqN+WXKjzhhCQAgBciLY8SGyMlz6ZHqJBAywn3UaXzl56+41gXX+dn268JVdJyfZ67CEAADC64lKnlm/M0+crsvX9ulxZbWy5CRhNeHi4Bg4aULZiw+l0asJVEzT20rGK6xqnPbv36Ju538hms0mSIiMjywqa/98T/ydbaanunnS3/Pxcsz23/ZWg22++XRkZGWX3OKN7N8XExpzirwxAQ+t5RjN9/v5AZWZZtWDxIf2yLkOb/srW/oOFSs8oKbvOZJJCQ3zUupWf+vYO19kDmmvMhVFq0ZwtrwAA7ghAPERsjJcW/9BM7WK9TnxxDQwaYNHyRc004qJs7d5DCAIAAKrmcEprEwv0+YpsfbUqW3lFjsbuEoAGNvnvk922rHI4HPp23rcVrjOZTHrp9Zd03dXXSZLsdrue+ue/9cK0F9W+Q3sV5Bdo7569FZ43/srxDdd5AI0uPMxH11/dTtdf3c7tfHaua1vuZiEnP7ETQNOXnW/TvNXpNb4+PjZAA+NDyo4T9xcqIanQ7ZqE5IJ66x9OLwQgHsDHx6Rvvg6tNvxIS3No9167CgucKixyKsDfpMAgkzq091KL5pUvPW3TxktzvgjVgCFZslqZvQkYSddosy7tX/k/EV2jzTW+9njbDzmUeJCBT8BT/L6jULNXZWvOmhylZttq/DyLt6kBewXgVBg1ZpRGjh6pRQsXVXvdxeMu1sWXjtXZQwa7BSYF+QXaunlrpc+JbhOteybdU6/9BdA0EHwAkFz1OjpF+2vyWzu16+CJt9C9c2xrtwBk3up0Pft5UkN2EacRAhAPMHmiv+K7VvxRr1pTqukfF2nJUqvS0qsekGzZ0qxRw310+23+Oquf+5uNbvHeuu9ef73wcmEVzwbQFF3a37vGoUZtrp0236rEg9a6dA3AaS45rVRfrc7WzGVZ2nmo5MRP+J+wIC+N7husv50XpvN6BDVgDwGcKjM+na7LLx6vtb+urfTxM7p302tvvSpJeun1lzV82HDl5eZV26bFYtFrb70q/wD/eu8vAAA4/Xz4wyG1a+Wna89zr+0ztEeofnn9TL369QG9+GUyW+uiSpSyNjiTSbrzNvcPB7l5Tl1zXY4uHJWlz78orjb8kKTUVIdmzirW0POydNtduSoqcn9BueNWf5mYqAkAgMfKzLNr+uJMXfD4bsXflah/fppSo/DD38esyweHas5jsdo3I14f3tdW5/cM4n0FYBCBQYH6ZuF8PfPcM4puE112Pjw8XPf9fbKW/LxE4eHhkqT4bl315bwv1bJl1YWLfXx8NOOzGRo+cniD9x0AAJweUrNLdcfL23XVM3/pYLr7Zwx/H7MeuzZGK17po35xwY3UQ5zuWAFicL17eSsmpnzrK6dTmnBjjhYvObkZ2J/OKlZJifTpjPJlYzExXurV01sbN9V8awsAANC05RY69O1vOZq9Mls/bymQ3VH7GVfv3hutK4c0a4DeAThd+Pn5afIDkzT5gUnKzclVQWGhIiNbymyuOBdv8NmDtHbDr3rtpdf09VdzdWD/AUlSaLNQjRo9Sg89+qC6xHU51V8CgAayYMlhLVxyuOx49PAoXTQ8qs7tzvoqSZ/PKd/a5m9XxGrClbF1bhdA41q4LlNr/lqvKTe1100jW7lNmureLlDLXuitTxal6PHpe5RfRL1ilCMAMbiuce4/4lWrrScdfhz15ZxiPfxggHp0L2+7axwBCAAARme1ObVkQ56+WJmtH37PU5G1ZjV9Av3MGtU3WAXFDv34Z/Xb2wAwrpDQEIWEhlR7TUREhJ5+9mk9/ezTKioqVmFhgcLDw2ViaRhgOBs2Z+mjz/aUHbeK9KsyAKlNqLE3uUDLV6WWHQ86q3k99RhAY8stsGnyWzs1e0Wq3ry3szpFl+96YzZJN49qpVFnheuh93br219qXiQdxkYAYnBRrdxnVq1dVz8hxdp1pW4BSKtW7KYGNGWLNtqUkt3w+2Vu2scsDKApe+HrNE2dfaRG1wb4ukKP8WeHauSZwQrwNWvq7CMEIABqzN/fT/7+fo3dDQCnAUINAMdaszVHgyev12PXxmry5dHyMpdPlIgK99Gsx+L14++Zuv/tXRW2zYLnIQAxuOOHMxtq4pSTOkNAk7Zxn0Mb99VsJjcAT1b9P/h+FpPO6xWkyweH6pIBoQr2Z4IEAAAAgPpXZHXoX5/s1ZxVqXprchf17hjk9vio/uFa9+aZmvp5spwMXHo0AhCDS0lxH9AcNNBSL+0OGuDezpEjDJwCAOCJvL1MuvisEF0+OFSj+gYr0I/QA/B0CdsStT0hsew4Lr6r4rt1bcQeAQAAo9q8p0DnP7RRf7+irf5xVVv5Wso/j4QEemva7R2UU8C2/Z6MAMTgEre7/4EPGWzRRaN9tWDhyS//uvZqP3U/w/1XJyGRFxIAADyR0ynlFzuUX+yQ1eZUYGN3CECjmz93vp6f8nzZ8aNPPqr4bo9Weu3hwyk6cjil7DgyqpWiolo1eB8BAIBxlNqcmvZFsr5akaY3J3XW0B6hbo+HBjIE7smYomdwGzfZlJzsvuf+zBkhuuqKk9tL94YJfnr3zWC3c/uS7Nq0mQAEAABPZHe4CqPf/dYBxdyUoAse3623vk9XajbvDQCc2McffaxzBw8r++/jjz5u7C4BAIAmas/hIl30xGZNfmun8ouoQQoX4i+Dczql9z4s0tSny/fBCwo06dMZIZp4t78+/qRYi5eV6ODBqrewatPGrBEX+OrWm/3Ur2/FLbTe+6CoQfoO4PQW6GfSJf28NKCzl6LCzGoRYpLV5tTOww6t+MuuBettKrI2di8B1CezufpiYnaHU78mFurXxEI9/kmKzu1xtB5IiMKDvU5RLwEAAAB4KqdTmvFjin5cl6lX7umkiwZENHaX0MgIQDzA628V6bq/+Sm+q/uPe+BZFg08yyIpWDm5TiUl2ZWb55S1xCkfX5NCgk2KjfVSaEjVgx1bttr0xtuFDfwVAGhoA7u4goyjft1u17pdVc+WuHaIt6Zc66uwwIqvD2d18tKEoRal5Tr19FdWzVpV2iB9BnDqPXJFSw3qGqDZK7M179dc5RZW/TpRandq6cY8Ld2Yp8nvmTSsR5DsDooPAgAAAGh4hzOtumbKNl02pLlevquTmofWT11kND0EIB7AanXqkvE5WvJDM7WLrXz2ZWiIST171O7XITnZriuvzVEpY5tAk3duNy89Ms6n7PjZudZKAxCzSXr9Vl/9bciJ3zi0CDHpjVt9NbCLWfdNLxHjnkDTZzZJw3oEaViPIL1yh1OL/szTf1dkadH6PJWUVv1HbvtfGFLxfEP2FgAAAICnm7c6XUvXZykipHwcIzuf7Xo9CTVAPERysl0jxmRrza/1k1asWlOq80dla+8+Ri4AT/LwOJ8ahR/HmjDUon9d6XPiCwE0KX4Wky4dGKIvHolV0ox4fTC5jUb3C5a3V/XbZB3rjjcOaOxTezXr5yzlF1e9HScAAAAAnKy8Qrv2pRSX/UcA4lkIQDxIUrJdF4zM0l0T85SQeHJ/6H9ts+m2u3I1fHSW9u8n/AA8Sd+OXnroksqDjOR0hzbsdWjHIUelKz3uHe2j/p3Y/x8wqpAAL00YFqavH2+n7e/F6YVbojSoa8AJn2d3OLV8c75uf/2AYm9K0Phn92nuLzkqtbNkDAAAAABQd2yB5WGcTmnGzCLNmFmkAf0tGjHcR316e6tXD2+Fh5sVEFA+a7Og0KmMdIc2bbFp4yabFi4q0Z/rSUgBTzVplEXH1z9estmuf35Roh2Hymdutwgx6YGxPrpzuEWm/11vNkn/uMRHV71cdAp7DKAxRIVbNHFsc00c21yJB0r05apszV6Zrb1HrNU+r8jq0MI/8rTwjzw9eU2kHr+q5SnqMQAAOB0k7MjV3O8OVPnYyV4LAPBsBCAe7LffS/Xb7+5bYlksUlCgSXn5TtnIOgAcY1h39xUcX/1q093vF1dY8ZGW69Tjn5dof4ZDU6/1LTt/XncvRQSblJHHzG7AU3Rt46t/XRupf10bqQ27izTr5yzNWZOj1Ozq32Q4nbxOAADgaeZ+d6DKUKMu1wIwpri2Abrugkid3ydMX/x0RG/MP1jltWMHRuiB8W20fGO2Pl1yRMmpxaewp2hsbIEFN6WlUlY24QcAd2GBJoX4ly//yC5w6h8zqy9s/u7iUm1OKl8Z4mWW+ndkGyzAU/Xp6K8Xb22t3R921dKpHXTLiHAF+/NWFAAAAEDNhQdb9MHf47Turb66f3wb9ewQKIt39Z8rvL1MOqtriB69JkZ/vtNXz9zUXkH+jE94Cj51AgBOqEWo+95XS7fYlVtU/Qxtp1P6/k/3NLVdy5oXRwZgTF5mkwbHB+rNu6KV9HE3zXksVpcPDpWPN68PAAAAAKrWOdpfK1/prWvOa1lhi+6a8vMx6/7xbbT8xd5q09z3xE9Ak8cWWB7MYnGt+KiM2SzFxngpurVZkZFm5eY5tWOHXUnJFD4HPFFWvnvYsT/dUcWV7lKy3Z8X6MsAJ4ByfhaTxvQP0Zj+IcrOt2vBH7n678/ZMpl4rQCMJDEhUfO/nl/lYzW99nhx8V0V361rnfsHAABOf5FhPvrmmR5q26J+Qov4mAB9O6WHznlgg/KLGO80MgIQDxMZadbjDwdq7BgfTXogXz/8WOL2eHCQSQ8+EKCbb/BXq1YVFwjt3mPXB9OL9O77RSo6wexvAMaRluvU/gyn2ka4BiWD/Go2OBkd7n5dZj6vGwAq1yw0eVpYAAAgAElEQVTISxOGhWnCsDBZbbxWAEYy/+v5NQ41anPto08+qvhuj9alawAa0UXDoxQV6dfg9zmzZ1iD3wNAw3trUudKww+b3anMvCpmeP9PboFdJaUO+Vrcxzo7R/vrmZva64F3dtVrX3F6IQDxIJeP89V7b4coJLjygcu+Z3pr5vRQdapmj/6OHbz0/JQg3Xazv665LkdbtlIsBPAUc34t1QNjfSRJ/TvVbK/M848rnH78ihAAqAzbYQEAYHx9eoapD+EEgBoY1quZRvYPdzvncEpvzj+gl+ccUEZu9QHI8o1Z6nD9b7rvsmg9eGVbeR2zf9ato6P0xc+p+i0ht0H6jsZHDRAPccXlvvp0RmiV4Uf3M7y1ZGFYteHHsTp19NKyRWHq0Z0MDTCi8CCTmgW6v168sbBUhzJdAUavWLN6t6v+n5DxA73dghKHU1q/l2WlgFGV2qsOOB1Oae8Rq9ZsK9DcX3K0dGOeklKtp7B3AAAAAJqqG0e0qnBu4us79MT0vScMP47KLbDpmc+SdNtL2+U85qOLySTdf3mb+uoqTkOMXnuAyEiz3n4jRN5V/LSDg0z66r+hCgyo3WzL0BCTvvw8VH0HZqqwkFndgJHcNcKiu0ZYlF/s1IEM1/ZXBzIc+m2nXZcN8JbJJL12i59GPFOokuPea0Q2M+lvQyx6eJyP2/lft9t1hBUggKEcybbp+a9SteD3XL12R7RG9wt2ezyvyKFX5qfp46WZSsmquGq0Y5SPbh0RoTtHh8vfh3k5AAAAANz5Wswa2c999ce81en6bOmRk2pvzso0jT4rXFed27Ls3PC+YQrw81JhMZM2jYgAxAP835OBCg1xDzfS0hw6eMj1R33XHf7q0N595YfdLn3zXYkWLCzR4RSHWrYw68LzfXTleF/5HlPEuEN7L026J0DTXixo+C8EwCkX5GdS12iTukZLkvvrRHy0Waokz0h4NbDStt5ZXLNZGQCahnm/5ujutw4ot9BR6ePrdxfpppf3a9fhkkofl6Tdh616/JPDmr44U58/HKPusQ2/DziAhjd6zChFRVWcqVnfevfp3eD3ANBwtm3PVeKO8i1nAgO9deG5kfLyYitMAOX6xQUrOMB9POK1uQfq1OZb8w+6BSC+FrP6dg7Sqi05dWoXpycCEIPz8THp8nHugwl//Fmq0RdnKzfPNXJ5zVXuj6dnOHTVtTla86v7YOV/Zxfr1Te89fXsUMXGlL/w3H2Hv154uUCOysc/ABjU3lSHSmpYBui7P2z6YT01gwCj+HpNjm5+db9sVWx79VdSsUb+c48Kimv25mDX4RJd+MQeLZ3agRAEMIDeZ/ZW7zMJJwBUb+73BzT1pW1u59rFBOqhe+N007XtCUIASJJah7vvLpGVZ9P6XXl1anPD7nzlFNgUGlg+NN4p2p8AxKDYa8DgBg6wKKxZ+ZsGh0O65Y7csvDDbJa6dHZPUa+/ObdC+HHUlq02jb86R6XHPBwVZVbvXmRpQFN2IMOp7Yccyi+u+RZViQdrNrC5OtGuez+qegY4gKblSLZNE985WGX4kVfk0NXTkmocfhyVW2jXNdOSVFjCjAoAADzVvuQC3fvwevU7f4lmfZUkezU1xgB4hqgIX7fj/WklbjU8TobT6WrnWM2CGNs0Kn6yBtcuxj3j+nNDqbbvKN/PLjLSLB+f8oDkt99Ltfyn6ouSbtlq0zffleiKy8tfgHqc4a31G5jdDTRVs1aVatYqV7IZ6GdSdLhJrUJNigozqXW4WZHNys+1DjerZahJCScIQErt0sc/lepfs0sq1AkB0HQ9/d8jyi103xu3Rai3oiMskqT3FmZoT4r7ewkvs0mXDAjRmP7BahVmUVqOTcs25mvOmmyVlJZ/etmTYtWb36fr4fEtBQAAPFfizlzddt/vevnt7fr7PXG6dnyMzGZWhACeyOLt/rfv7VXFhbV0/CuK2cRrjFERgBhcy5buAUhSkvuAZX6ee2T6xx81CzHWrit1C0BatGAxEWAUBcVO7Tjk1I5DVV/jZZa8q/izf2dxqbYfdGjRJhtFzwGDsdqcmver+7Lwvp38teCpDgoJcL0ozF6V7fZ4RIi3Zj8So8Hx7vWBrjmnme67tLmufC5JSanlgcl7CzP10OUtxRgHAADYtt0VhLzyznY9/kA3XTa2jRijBDxLboH7WGXrCF+ZTZKjDsMNZpMU3dx9ZUlOARO7jYpRa4OzHzdB2++4bbXz8p1Kzyi/yFHDVw9rift1dV16BqBpsTtUZf2PJz4v0cwVpYQfgAGtTSxUdn756g+zSfrwvrZl4YfDKe086L6U/JO/t60QfhzVPdZPXz0WK8sxe3wfzizVpj1FDdB7AABwOmsfG6jAgMrn6f6VmKsJd67VkDHLtHDp4VPcMwCNadch988GzYK8dWaX4Dq12adzcIUtr3Yf4jOIURGAGFxKinsC0qeXRebjfurzvy0fqOjTx1Kjdrt3d3+RSEtjv24AAIzu2JUaknRmpwDFRZfPnDqSVSqrrTz8PKtLgM7vGVRtm91j/XTJwBC3c1uSiuuhtwAAoCkZdX6Utq8brQcnxinAv/I9btZvytLlN6zROWOXa8ESghDAE2zYlV+h/uB9l7WpU5uTxkW7HdsdTm3aXVCnNnH6IgAxuN//cN94PzrarCsud18G8t4HRbL/bzLnkMEWDehffQjSooVZ11zl3saWv1gmBgCA0aXmuP97H9vS/T1D0HGDFf06+9eo3QFxAW7HaTm8rwCasuemPK9Qv2YN/t9zU55v7C8VQD2LCPfVlCd6aPu6MXpwYpz8/SoPQn5fn6krblyjYRf/RBACGFx2vk0rt7hvszvu7Oa65ryTqxt42ZDmunxIC7dzq7fmKDOP4qVGRQBicLt227Vxk/sgwuuvBGvQgPIBi81bbJr6fHnKOeuTEHXqWPmbjPAws776b6hCgsu3qsjIdGjTZgYqAAAwOq/jCnMUW91nYgX7mxURUr5KtKaFBH2PK2zI1t4AAHi25hHuQYifb+VjFL/9maErblyj8y75ST+tTj3FvQRwqrz7XcUipW9P7qLbxkTVqp0JF0Tq/QfiKtQSeu/7aoqgoskjAPEA0150X8IV1sykxT8000vTgtSxg+tNxHP/KdBLrxbK6ZTatvXS2tXh+tcTgerR3VthzUyK6+KlyfcG6M+14W7hiSR98FGRHOyABQCA4bUKc98Cc+OeogrFBy89ZjurDTWs5XH8llctQivf/xsAAHiWFs1dQciWNSM18dZO8vWpfBhr7R8ZGnPVSp1/6U9asSbtFPcSQEP78fdMrdma43bO4m3SK3d30qLne+rSwc0rrEY/KtDPS2MHRuj7qT307v1d5Hfc68jv2/O0YG1Gg/UdjY9Plx5g7vwSzZ1fosvHle/R7eNj0r33BOjeewK0fYddW7balJrq0F/bbOp+hreCg0x64tFAPfFo5UVLj0pNdeiNtygSBACAJzh+S6uDGaX6ek22rhzSrOzcnaMi9MnSLNkdTq3ZVqB1Owp1VpeA45sqk5Zj05er3Je092jnV8XVAADAE7VpHaAXn+mtyXd20X9eT9QnX+yVzeascN2vv2do1JUrNKh/hP79aHcNHdSiktYANDVOp3T36zu04qU+Cgt2H84efEaoBp8RKrvDqV0Hi5SWU6qCIrsC/b3UPNSiztH+FVayH5VXaNedr2yvMKkLxkIA4iFuuzNX4WGhGnauT4XH4rp4Ka5L5SlpdUpLpQk35ig9g+UfQFP3yDgfPTKu4utDfZs236pp860nvhDAaalTlK96tffXpr3lkx/ue/+Q2jb30cCurpCjRzs/PXZVS0354ogk6foXk7Xg3+3VKcq3QntZ+XZdPS1JuYXl7yXCg73Us33NaocAOD2FhTWrcO7sIYNl8anf9xrt2rer1/YAnP5i2gTozf+cqfvv7qLnXknQ7HnJstsrD0JGjF+hURe00rP/7Kn4LiGVtAagKdl7uFhXPfOX5v27e6WrPbzMJsW1DVBc25q1V1hs1zVTt2nnQSZ2Gx0BiIcoKHTq4stzNPXfgZp4d4C8ap93uElLc+j6W3K1cjUFggAA8CQPX9FCE15ILjvOzrdr1L/26PZREbprdIQ6Rvno0StbqrDEoVfmp2l/eqnOfmiXJl3cXOMGhapNhEVHcmxavD5Pr32TrkOZ7u8lbh8ZoSomaAFoIm6+7WZN/2CGtiduLzt30SVjNXHyPY3YKwBG0ql9kD56vb/++VA3vfjmdn38372VBiE/LktR397hevLBbo3QSwD1bW1Cri74xybNeixenaJPftLUvpRiXfdcgjbtya/H3uF0RQ0QD2K1OvWPx/I16JxMzZ1fotKTyC6Kipx694Mi9T87Uz/9zCxuAAA8zWWDQnXZoFC3c1abU299n64eE7erz6QduvHlZBWVONQtxrWVVV6RQ89+maqzHtip1jdsU59JO/TIjMMVwo+Wzbx179iIU/a1AGgYvr6+evmNl2U6psLoM089o3179zVirwAYUbuYQL35nzP1+7Lh+tsVsfLyYhYFYHTbkgo0aPJ6TZmVpIzc2g1uZuXZ9PwXyRpw75+EHx6EFSAeaNNmm669PkcR4WZdNNpHgwdb1KuHRW3bmtWieXkm5nRK2TlOHT5s1x/rbVqzxqoFP1qVlsaWVwAAeLL3J7VRVr5dP2+p+KFh+8ESbT9YUus2LV4mffpgjCJCeHsKGMGQoWfrhpuu1yczZkqSigqL9OB9D+nrb+c0cs8AGFF8lxB99Hp/PTgxTlNf3qZ53x+Qkz39AcMqtjo07YtkvTHvgEb2D9eIvuHq0SFQXdoEyP+YIudFVod2HijSlr35WvxHln78PUOFJYxreho+YXqwjEyHZs4q1sxZxW7nm4W6Zkxk5/BuAfAU2QUV/95/2W5Xqa1+75NEgAoYQqCfWfP/2U7//DRFby/IkL2OVQNbhHrr4wfaaugZgfXUQwCngynPT9GSRUt06NBhSdLSxUs1Z/YcXXH1FY3cMwBG1S0uRLPeG6itCTl67tUEzfv+QGN3CUADKixxaN7qdM1bnV52zsfbpAA/LxUW22W1MbYJAhBUguAD8Dwf/1Sqm8+zqEvr8pkSC9bb9M4i6vwAqJyPt0nTbo7ShGFhmjYnVd+vy1VpJXtvV8ffx6zrzw/TI1e0UFS4pYF6CqCxhISG6LkXntONE24qO/fw3x/ReReep4gItrsD0HC6x4dq1nsD9ceGTKVl1H5lKoCmy2pzyppfz7M50aQRgAAAVGKTHpxZom8f8dfR7bqfHO+rhevt2seqDQDV6NneT7P+EaPMPLsW/J6rXxMLtGlvsfanlSo9t/yDh8kkhQZ6KSrMon6d/TU4PlBj+gWrRShvRwEjGzd+nMbOvkjff7tAkpSRkaF/PfYvvfX+W43cMwCeoF+f8MbuAgCgkfGJE24CAkzy9ZGKS1wFzwF4jjWJdn22slTXn+uahe3vI71wg6+ufKmokXsGoCkID/bS9eeH6frzw9zO5xTYJbnCDwCeacZnM1RYUFh2fGxxdACea/BZzfXgxLiy4wH9WBkGoO4CfM3ysZhVYnWoyMqEThCAeCyTSRo80KJRI33Vp5e3enT3VosWZnkdMzZRWiqlpTm0eYtNGzaV6sdFVq1dx3Y4gJH98wurLuzpragw18DEBT28NH6gt75ey/JRACeH4AOAj4+PfHx8GrsbAE4z5w9tqfOHtmzsbgBookwmaWB8iEb2C1evjkHq3i5QLZpZ5GUun2hRanMqLadUW/bma9PufC36I0vrEnMbsddoDCafoCNM8/cgZrN0603+un9ygDp1rP2AxI6ddr36eqFmzCySgxDVowSOD2jsLuAUubS/t2ZM9Cs7zshzauDjhcrI458LnNjBSwc3dhcANAGlY1Y1dhcANAE+mbc1dhcANAEt7pjc2F3AKWQ2STeNjNLky6LVsbV/rZ+/82CRXp93QDMXp8jBMIdHIADxILExXvpkeogGDah7kdFffyvVjbfkKinZXg89Q1NAAOJZPp3sp4vOLF8kOGtVqSZ9RPFAnBgBiLEl7C9Wwv7y14L4tr6Kb+tXzTOAyhGAGFvCtkRtT0gsO46L76r4bl0bsUdoqghAjG3b9lwl7iifid21S4i6xYU0Yo/QVBGAeI6Yln6a/lCcBsTX/bXit4Rc3fLidiWnFtdDz3A6YwssDxEb46XFPzRTu9j62YZi0ACLli9qphEXZWv3HkIQwGhufbtYAb7ly0adROUAJM39JUdTZ6eWHT9xdUs9cXXlAcjhzFKlZJVvn9cqzFtR4XWfhAHg9Dd/7nw9P+X5suNHn3xU8d0erfTaw4dTdORwStlxZFQrRUW1avA+Amh8c78/oKkvbSs7fuLBbuoW163Saw8fKVLKkfJBylaRfoqKrP3MbwBNV0xLP/3wbA/FRtbPBKwB8SFaNK2nLnp8i/YcpvapkRGAeAAfH5O++Tq02vAjLc2h3XvtKixwqrDIqQB/kwKDTOrQ3kstmpsrfU6bNl6a80WoBgzJktXK6ChgJFabZLXxdw3g5E1fkllJWBLZiD0CcDr6+KOPK4Qljz1ZeVgCwHN99NneCmHJkw9WHpYAMB4fb5O+fuqMasOPtJxS7T1cpIJih4pK7PL39VKQv5fat/JT89DKJ2K1ae6rL57spiH3rWcMxMAIQDzA5In+iu9a8Ue9ak2ppn9cpCVLrUpLr7qgR8uWZo0a7qPbb/PXWf3cXzC6xXvrvnv99cLLhfXebwAAAAAAAACebeK4aHVtW3Fr9jVbc/Tx4hQtXZ+l9JzSKp/fsplFw/uG67bRUeoXF+z2WHxMgO4d10Yvz9lf7/3G6aHyqf0wDJNJuvM292WhuXlOXXNdji4claXPvyiuNvyQpNRUh2bOKtbQ87J02125KipyT0TvuNVfJlMVTwYAAAAAAACAk2AySbeNbu12Lq/QruueS9Coxzbri59Sqw0/JCk1u1Szlh3ReQ9t1F2v7lCR1X0s9NbRUYxtGhgBiMH17uWtmJjyra+cTmnCjTma983JFTP+dFax7rgnz+1cTIyXevVkMREAAAAAAACA+tOrQ5BiWvqWHTud0o3/SdA3v6SfVHuzlh3RPa/tcDsX09JXPdsH1amfOH0RgBhc1zj3YGLVaqsWL7HWqc0v5xRry1ab27nj7wMAAAAAAAAAdRF33NZXq7fmaMmfWXVqc87KNG3dV1DtfWAcjFobXFQr94xr7TpbFVfWztp1perRvfzXp1UrsjSgKXtknI8eGefT4PeZNt+qafPrFsICAAAAAADP0CrcfaxiXWJuvbS7LjFX3dsFVnkfGAej1gbnPO64ofazcx5/IwAAAAAAAACoi+PGHBtubJPBTaMiADG4lBT3oj6DBlrqpd1BA9zbOXKk+kLqAAAAAAAAAFAbKVnuu0gMjA+pl3YHdHVv50hW9YXU0XQRgBhc4nb3La+GDLbootG+VVxdM9de7afuZ7jvnpaQWD9bawEAAAAAAACAJG3fX+h2PPiMUI0+K7xObV49rKXOOGb7K0lK3F9QxdVo6qgBYnAbN9mUnGxXTIxX2bmZM0J09715+nJOca3bu2GCn954Ndjt3L4kuzZtJgABmrLsgopLPX/ZbldpPf9pJ6WxWgwAAAAAANTMpj35Sk4tUUzL8gndM/7RVfe+sVNzVqbVur0JF0Tq1Xs6uZ1LOlKszXsIQIyKAMTgnE7pvQ+LNPXpoLJzQYEmfTojRBPv9tfHnxRr8bISHTxY9aBkmzZmjbjAV7fe7Kd+fStuofXeB0UN0ncAp87HP5Xq5vMs6tK6fGHggvU2vbOIJaAAqpawv0Rzf8mp8rGaXnu8+La+im/rV+f+ATg9JCYkav7X86t8rKbXHi8uvqviu3Wtc/8AnB4SduRq7ncHqnysptcer2uXEHWLq58tcwCcek6n9OHCQ3r6xvZl5wL9vDTjH11198Wt9cniI1q2IUsH00uqbKNNc19dcGaYbh7VSn07B1d4/IMfDjdI33F6MPkEHaHCi8H5+Ji0bk2Y4rtWnXfl5DqVlGRXbp5T1hKnfHxNCgk2KTbWS6EhVVcX2rLVpkHnZKqUMVLDCxwf0NhdQAM7u6uXvn3Ev6ygWJFVOvuJQu1j1QZq4eClgxu7C2hAU2cf0dTZqQ1+nyeubqknro5s8Pug8ZSOWdXYXUADem7K83p+yvMNfp9Hn3xUjz35aIPfB43HJ/O2xu4CGtCUl7Zp6kvbGvw+TzzYTU8+2K3B74PG0+KOyY3dBTQwH2+T1rx+prq2rXpsKrfApqTUEuUV2lRS6pSvxaTgAG/FtvRVSGDVY6Jb9xXonAc2qNTGELlRsQLEA1itTl0yPkdLfmimdrFelV4TGmJSzx61+3VITrbrymtzCD8Ag1iTaNdnK0t1/bmulV7+PtILN/jqypdY5QUAAAAAABqH1ebU+Ke26odneyo2svKV4iGB3urRvpZjm6klunbqNsIPg6MIuodITrZrxJhsrfm1ftKKVWtKdf6obO3dZ6+X9gCcHv75hVWHs8r/4b+gh5fGDyQrBwAAAAAAjSc5tURjHt+iX7flnvjiGlizNUejHt2kfSm1r5GMpoUAxIMkJdt1wcgs3TUxTwmJJ1fZ+K9tNt12V66Gj87S/v2EH4DR5BY59fjn7vtmPj/BVxHBVW+FBwAAAAAA0NCSU4s18tFNmvj6TiXuLzypNrYlFeiuV3do9OObtT+t6rohMA6m9XoYp1OaMbNIM2YWaUB/i0YM91Gf3t7q1cNb4eFmBQSUD3IWFDqVke7Qpi02bdxk08JFJfpz/ckFJwCajm9+t2nBepsuOtP1T0REsElPXeWjSR/xxgDwdGP6hSgqzNLg9+nT0b/B7wGg4YweM0pRUa0a/D69+/Ru8HsAaDgXDY9SVBVb2dSnM3uGNfg9AJw6Tqc0c0mKZi5JUf+4YA3vG67eHYPUo0OgwoMtCvAtn+9fWGxXeq5NW/bma9PufC36PVPrd+U3Yu/RGCiCDjcWixQUaFJevlM2sg4cgyLonsXHWwrwLQ9EnU4pp5B/LnBiFEEHUBMUQQdQExRBB1ATFEHHsSzeJgX6eSm/yC6bnXEMsAIExyktlbKyeXEAPJ3V5ioyBgAAAAAA0FSU2pzKzmdWN8pRAwQAAAAAAAAAABgOAQgAAAAAAAAAADAcAhAAAAAAAAAAAGA4BCAAAAAAAAAAAMBwCEAAAAAAAAAAAIDhEIAAAAAAAAAAAADDIQABAAAAAAAAAACGQwACAAAAAAAAAAAMhwAEAAAAAAAAAAAYDgEIAAAAAAAAAAAwHAIQAAAAAAAAAABgOAQgAAAAAAAAAADAcAhAAAAAAAAAAACA4RCAAAAAAAAAAAAAwyEAAQAAAAAAAAAAhkMAAgAAAAAAAAAADIcABAAAAAAAAAAAGA4BCAAAAAAAAAAAMBwCEAAAAAAAAAAAYDgEIAAAAAAAAAAAwHAIQAAAAAAAAAAAgOEQgAAAAAAAAAAAAMMhAAEAAAAAAAAAAIZDAAIAAAAAAAAAAAyHAAQAAAAAAAAAABgOAQgAAAAAAAAAADAcAhAAAAAAAAAAAGA4BCAAAAAAAAAAAMBwCEAAAAAAAAAAAIDhEIAAAAAAAAAAAADDIQABAAAAAAAAAACGQwACAAAAAAAAAAAMhwAEAAAAAAAAAAAYDgEIAAAAAAAAAAAwHAIQAAAAAAAAAABgOAQgAAAAAAAAAADAcAhAAAAAAAAAAACA4RCAAAAAAAAAAAAAwyEAAQAAAAAAAAAAhkMAAgAAAAAAAAAADIcABAAAAAAAAAAAGA4BCAAAAAAAAAAAMBwCEAAAAAAAAAAAYDgEIAAAAAAAAAAAwHAIQAAAAAAAAAAAgOEQgAAAAAAAAAAAAMMhAAEAAAAAAAAAAIZDAAIAAAAAAAAAAAyHAAQAAAAAAAAAABgOAQgAAAAAAAAAADAcAhAAAAAAAAAAAGA4BCAAAAAAAAAAAMBwCEAAAAAAAAAAAIDhEIAAAAAAAAAAAADDIQABAAAAAAAAAACGQwACAAAAAAAAAAAMhwAEAAAAAAAAAAAYDgEIAAAAAAAAAAAwHAIQAAAAAAAAAABgOAQgAAAAAAAAAADAcExOp9PZ2J0AAAAAAAAAAACoT6wAAQAAAAAAAAAAhkMAAgAAAAAAAAAADIcABAAAAAAAAAAAGA4BCAAAAAAAAAAAMBwCEAAAAAAAAAAAYDgEIAAAAAAAAAAAwHAIQAAAAAAAAAAAgOEQgAAAAAAAAAAAAMMhAAEAAAAAAAAAAIZDAAIAAAAAAAAAAAyHAAQAAAAAAAAAABgOAQgAAAAAAAAAADAcAhAAAAAAAAAAAGA4BCAAAAAAAAAAAMBwCEAAAAAAAAAAAIDhEIAAAAAAAAAAAADDIQABAAAAAAAAAACGQwACAAAAAAAAAAAMhwAEAAAAAAAAAAAYDgEIAAAAAAAAAAAwHAIQAAAAAAAAAABgOAQgAAAAAAAAAADAcAhAAAAAAAAAAACA4RCAAAAAAAAAAAAAw/Fu7A4AAAAAAAAAANwVl0p/JkkrdkrbDkuHsiWn0/VYyxApLlIa0kka2F4K8a/7/ZIzpVU7pd/2SrvTpEKr67yvt9SuudQvVhraSeoSKZlMdb/fUal50i+7pTW7pJ1pUk6h67y3l9Q2TOrVRjqni9Sjtetcbb6eN36S1idL3mZpWBfprnOlsID663tShrR6l+t7titNKjr6PbNI7SOk/u2kczpLnVrW3z0lKS1PWrNb+nWPtOOIlF3o+pl0bSXdeY7re1Ydp1Pak+7q++/7XH0vKXU95mdx9bdfrDQsTooNr9++n2omp/Ponw0AAAAAAAAAoDFlFkgfrpY+WC3ty5Bs9qqvNZukyBDpqr7S5AukDs1rdy+H0xV6vLJUWr5dyiuu/np/H6l/rHTvedJlfVzBwsnaclB6ecSyH0EAACAASURBVIn07WYpq7A83KmMj7cU30q6+1zpugFSoG/1bW/cL13ytrQ/0/38We2l7yZKLYNPvt92h7QsUXp9ubRih5RfUv31AT7SgPbSfRdIF/Wo2/ds0wHXfb/Z5Po9qex71sxf+u/t0qgzKj5ms0s/bHUFQ7/sLg+5qhLk6wrZ7r9AGt7N9fvW1BCAAAAAAAAAAEAjczilz9dJj8+T9mfV/vnN/KWHRkgPXOgadD+RfRnSw1+7BtOtttrdy2ySzu4kvX611Ltt7Z6bXST98xtp+poTD8Afz2SSukVJL10hjehW+UqUUrt0wcvSql2Vt3HPMOmta2t336P2pkv3fyn9sEWyOWr3XC+zdG5n6bVrpO6ta/fczALp/76r+fesYwvpzyek0GNWBiUcdvV9WaIrxKkNb7MrAHntaqlzPa9maWgEIAAAAAAAAADQiAqs0qT/SjPX1n5w+lgmk2urp09vkaKbVX3d4m3SrTOlAycRtBwr1F969SrppsE1u/6vQ9I1H0hbD9Xtvr7e0uNjpMdGSZbjtsXalSr1eNq1hVhlYsKlhH/XLCQ6yumUFv4l3fqJlJJ78v2WpGYB0tvXStf0r9lWYlsOStdNlzYfqPk9TCbpx8mukMjplOasl+6eJWUUnHy/Jal5kPTRDdIlverWzqlEEXQAAAAAAAAAaCQFVunq96UZv9Qt/JBcg90/bZdGvuZarVCZ+RulK9+ve/ghSTlF0p2zpBcXn/jajful4a/WPfyQpBKb9O/vpPtmu1Z8HKuotOrwQ3Jt85VTVLv7/fd36Yp36x5+SK56HTd+LL29ovptvyTX9+yiN2oXfkiudjPyXf//7krp+ul1Dz8kKT1fuup96dO1dW/rVCEAAQAAAAAAAIBGYHdIt82UFmyp33aPrrTIPG7Qe8UO6aaPpdxaBgDVsdqkJ76RZv1W9TX7MqSL3pQO59TffR1O6b2V0pQfpNpucVSbPZGWJ0p3fuYKVupLqV164Evp6/VVX7MnTRr3zslth+Ztlrq0kuZtkB78yhUY1ZcSm3T7p9LShPprsyF5N3YH6sP+/Qe1b1+SggID1efMJrT+pglIT89QQsJ2BQT4q2/fPo3Sh7TUdKWmpiknN1cmmRQUHKj27WMVFBTUoPddteoXSVLfvr0VEBDQoPeqrb/+SlBmZuWvfhaLRSHBwWrfoZ38/f0a5P6n8/cGAAAAAACgqXjrZ2n2Hw3T9rp9rhof71/vqtlxJFe647Par36oCatNuvcLqU+Mq0bHsUrtrtDlUHb939fhlKb96CrMPrZn/befkivdMvPEhc5PRqlduvtzqVfbinU1rHZXyJCUcXJtnxfnKmB+z+f1G9wcVWKTbpghbXhSigyp//brkyECkH17k7RkyXK1iookAKlnR46kasni5WreIuKUByDbE3dq5co12r+/4hovk8mkDh3aa8TI8xUV1apB7r9k8XJJUlyXzqfdIP/GDZu1ffvOaq/x8vJSz17dNXr0CPn5+dbr/Rvie2O1WjXlmf9Iku5/4B6Fh4ef1DUAAAAAAABNwf4s6clvarcaobZmrZMmny/1iJaeWSDtONJw98oudK1qWDjZFbgc9cEq18qThlJicwU9Qzq56mvUF6ekf3178iFETaTnu/o+505XkfSjPlot/XwS3zOTSRraSfrwBunFJfWzZVdVDudIryyVnr+84e5RHwwRgMBYHA6nlixepl9+WSunUzKbTYqOjlZ4eJicciotLV0ph1O0e/cevffuXl166ViPDb7atm2jrvFdyo4ddodyc3OVlpahpKRkbVi/SYcOHdYdd9wsi8XSiD0FAAAAAADAsZ5b6KpHcSJeZqlntHROFykq1LWt1a97pHV7T7y1UXGp9EeS5OPtKrBeE82DpHO7uO7pZZYSU6QVO6X9mSd+7tIEV4H1UWe4jgut0rMLa3bfIF9paGepX6yrQPmedFdwsjP1xCFRQoqrhsoDF9bsXjWRcLjmtS5aBLuKz3dvLZnN0vYUaVlizbb8+m6ztGqX6/mSlFvsCi8cNQjGgv2ksztK/dpJzfyl3m2lwR1cP++VNQxQokKlYXHlK3e2HnTVkUnNO/FzTyakOdUIQHDa+fmnlVqzxvXq0rt3T11w4TCFhrqvpcrIyNTChYu1Y/suzZ//nYKCg9S5c8fG6G6jat06SkOHDq70seTkA/rk4890JCVVK1as1oUXnneKewcAAAAAAIDKZBXWLJDo2EJ65SppRDfJ95iRXLtDWp/sWnGxZnf1bTglfbTmxGGLxUu6Y6j0+GipdTP3xzILyuttFFqrbsPhdG3rdTQA+fJP6eAJtr4ymaRxvaXnL3NtBWU6ZvVIQYn01Z/SI3NPPCD/0RrpznOqv6Y23ltZfTF1yVVr497zpEdGSa2O2woqo0B6Y7k0bVH17dgd0jsrpHM7u772eRuqLmB/lNkkXdpLeu5yqUukZDrucbuj+ucfq1uU9H9jpbjI8nMpudLLS6RXl1UsMn+shly9VF88KgDJzc1V0r79ys3Nk9lsVuvoVoqJaSuT6fhfkcqfu29fsvJy82Xxsah58wi1bx9b7XOP1kkYMKC/fHwsSk/P0J49+1RSUqKQ4GDFxLZVWFizKp9/lN1u1/79B5WVmaX8ggIFBPirVatItW7dWlXd/th7WywW7duXpMOHU2S32zVw4FmyWNx/9CmHj+jQocMqKCxUUGCgOnfppKCgwErbdjic/1ud4VTXrl3UokXzKvv+xx/rVVRUrJiYtoqNbXvCrzU5+YBWrlwtSbrgwmE699whlV4XERGuCROu1pez5+qvvxL0/XcLdd/998hsNld6/cn8/Gqirr8XNfnZnKyYmDYaes7ZWr5shTZu2FxlAHIyv181UdO/t4KCAq1fv0l2e/mr6R+/b5B/gL8kqW/fPnI6HSe8JuB//38yfQAAAAAAADiVvtnoGtyvTrco6cf7pLZhFR/zMkv920kLJkkTPqq6iLqvt9SjtfSfRdXfy9ssvXiFNHGY+1ZMR4UHSo+OkuKjpL99WH1diaUJUlqeayXJF+uqv68kTTpP+s9494DnqEBf6abBri28xr5Z/ZZOCYeljftdqyLqqqBEmr+x+mu8zK5wauIwVTqGFhEoPXWx1K21dMP06lfrLN4mZRa6nvP5uuqDBZPJFbpU9T072rehnaVNFSsLVLAsURr0vPT34a7t0kL8XGHOtMtdgdQ9n0u2KgKVYXEnbr+xeUQAUlJi1YLvf9SWLVtlPy7+Cg8P1yWXjlGHDu0qfW5xcYm+/36htm7ZJofD/blhYc00evQIty2IjnW0TkLv3j21bOlPWrt2ndsvr8lk0hnd43XJJRdVWaNh3bo/tHzZChUWVqxOFB3dWldcOU4RERXrIBy9d+fOHfXdtwvd6mj07du7bJA9Oztbc7/+Tvv2Jbk932Kx6JJLx8jbu+KviNls+v/27jw6yvrs//h7JpkshGxkBQIhCzuEVdxRoSqICIot1h211j5q7V6fntrjz9ra5fe4VqsW69LHYm2tstaNRVBcIOyEAAGSQPaEhARCyDLz/PEl+8w9k2SCkPN5nZOjmbnv7/2dewnnfK+5rosDOQc5cOAQRysqmTd/jtu5V1VVsXzZKlwuuOc7d7rdpqO1a9bjdLpITR3G9Onugx/NbDYbc66dRXb2Xiorq8jNze90HXty/az4477wdm38ITU1hTWrP6G6uoZTp+oJDg5q93537y8rXX3eaqqPt5yTZp9++nnL/48eNZLGxkav27QNgPTkmRcRERERERER6W0f7bF+P8QBr93pPvjRVmQo/OU2mPmkKQPVls0Gd11syiEdLLMeZ+FUz8GPtuPNm2CyHR5d7nm7ugZTuuraDFifY33cacNMDwlPC/nNpiTD0wtNsMdTdoPTZYIv1/uhjfGeYtOjxcrtF3gOfrT1rSmwJc9kgnhSVQtfHISL0kzJMivThsFv5ns/Zz/8BizbDvk+lC6rrDX9Tt7aBE9cD9eMM/fCPZeac/HUx533SYmFH8z0PvbXrc8HQOrqTvHK4tcpKSklODiIiZPGEh8fR11dHXuy9lJcXMIbr7/JLbcsZPiI9A771vGXl1+jrKycoCAH48dPIC4+lrq6Ovbvy6GgoIglS95mzrWzmTZtisc5rF69jm1btzNlymRGjEwnwG6npKSML774il07sygrLec79y4iKKh9j4a1a9azdu16AAYOSmTsmNGE9e/HsapqMjO3UlBQyN/eWMJ/3X9vp32bLX1vJaWlZVxwwXkkJibQ2NSEw2EWwauqjvHyS69y/PgJQkKCycgYT2xsDLUna8nKyubdfy/nvPMmux130qQJHDhwiKysPcy5dhaBgQGdttmxfTcuF8TGxTB0aJLni3Rabe1JDh06BMCFF53vU/ZB//5h3HX3HdTX1zNgQPt/Efx1/Try17hW18Z/WiNuHc+nP+6vjrrzvEUPiOaOO2+hsaGRN9/8BwA3LLiO8PBwACIiI3C5XF636ckcRERERERERETOJG+L3PMnmr4OvhgYCSsehB//E9bvN6WuEiNM8OPns0wJKU/f4AcIdcDPZlkHP5rZbCZj44V11iWpth6GlDg4aVEuC+C/Z5vj+2LBZPjjB5CZ73mbLfn+CYBszbfOwggOhF/O8R78aPbTq02Zq2qLMmSb8yAhAqo7f0+5hc1mMnH6u/8ufTupsbDyAXjobVi313tPEZcLdhfCDX+GeRNNkGVkggmIxIeb+RdXQz8HXJgGz95k7r2zXZ8PgLz//keUlJQSnxDH7bd/m4iI1oXSyy+/lFUrP+DLLzfz3nsr+MEPH2j37ftVKz+krKycAQMGsOiuW4iMbL2iM2ZcxvpPPuPjj9fy/n8+ZFjyUOIT4tzOYUvmNhYuXMDYcaNbXhs+Ip1JkzN4ZfEblJSUsmb1OmbNvrLl/ZMnT/LVV5kAXHb5JcyceXm7Mc+/YCp/eu4ljh6tZPfuLCZNct8EvLKyivsf+A4DBnT+Fv/yZas4fvwE8Qlx3Hnnre1KXl1++XSWLV3Jl19udjvu6DGjCAkJ5uRJs+g/ekznfKftO0zunae5dVRaWobT6cLhcJCe7ns/jyFDBrt93V/Xr7fGtbo2/pKTcxCAyMgIgoJagyv+ur866s7zFhwcRFpaCvX1rf8iDh2a1Om8+LJNd+cgIiIiIiIiInIm5VVYvz9vQue+DlZSY+Gd+0xQ4sQpU0opqp95L9dLP4nhCTB2oO/Hiu5nmqT/M9PzNrkV3o8bHgLfGG29TVuBdpg7wToAknfUP30pcr1cn/GDzTn3VUyYOWfLd1gf8/BR62BVbBhc0oXv844bDP/5vsnseHS5994iYI7/zhZTGuvHV5qA18Oz4HuXQflxE7BKjDR9SM4FPsT1zl01NTVs27odu93OTTfd2G4hFEwJpdnXXEVM7ABqao6Ttbs196y6uprt280C/g0Lrmu3yN1s+mUXk56eSmNjExs//9LjPEaMTG8X/GgWFhbGNXOuAmDz5q00NLQWggsNDeUnP32IRXfdyowZl7vdd+QoU2Kp4Eihx2NfMWO620XiivKj7N9/AJvNxoIF8zr1+7DbTXmpiIhwt+M6HIGMHTcGaA10tFVcVEJZaTl2u52JEzM8zq+tmmoTNg4P70+ALyFnC/68fr01rqdr4y/5+Uf47HSZqImT2l8Df91fbfXkefOXs2EOIiIiIiIiIiLeWPWDAEj17Xu67dhtJvMjLa41+AFQZZFRAKbPQ1eW4mw2GJ1ovU35ce/HTR5gSn11hbfjHj8FdV7OrS+OeZn7SC/zcCc93vr9E6eg7Lj1NgOj2l9bXwQFmHJdXzxsymKF+ViApqoWHlkKF/zONGbvH2zurUFR507wA/p4ACQray9Op4u0tBRiY2PcbmO32xl+Otvg4MHc1n1378XlcpGYmGBZvum80yWOsnZne4wujhkzyuP+aWmphIX1o76+nkNtjg8QEGAnJWWY21SqpiYn9afMt+Hd9W9olpQ0yO3r2dn7ABg0KJGBA90/sQ5HIGPHeg7DNmcF7NubQ11d+/yt5qBI+vBUwsP7exyjrRO1tQBum1l3lT+vX2+N6+nadEVhYREbNmxs+fnkk09ZvmwVf33lb7yy+HUaGhpJTExg+vSLO+3rj/urrZ48b/5yNsxBRERERERERKSnnBZZAF0V6GUFuKGp62NaZSmACZJ4O663Mbp1XLxnzjhd3stBeeOpD4m343rT6OVaBAV4P6+exIfD/9wIn/zEZN74GsTILoZvvgw3vAhZRd079tepT9d+OVphOrzU19ezYcNGz9tVmo42x44da/Oa2TcpyX15pWbN5Zfq6uqora0lLKxzCK5jb4q2bDYb8fHxHDqUS2VVlfv5Ha0kLzef0tIyjh6tpLq6mtLSchoaGgBwWazcOwLdh1GrTh9r0CDrRfiYWM8ZCkOHJhEbG0N5eQVZWdlMnjyxZT47d+wGaHnNF2H9zLnzdcHdij+vX2+N6+nadMXhw0faNVFvKyDATkZGBrOvuQqHw/OxenJ/tRunB8+bv5wNcxARERERERER8aZfENRa9MfYXQQXpHZtzBOnzGJ1aY3JNkiNNZkd3jIG9pZAfaNplu4LF7CzwHqbhHDToN1KboXpdzEgzHq7trYdtn4/MtT8BAd6zrKpqTOloJIsGszHevk+984CU2rL1x4gADvcL+G18Ha+uqu6DvYUmYyc4XEweajpDfLWJnh0hW9lsZqcpqH6ur3w0ExTGqu35utvfToAcuKEySjIyztMXp6XpwM42SaLofaEWYQPCbXuKBMa2nqlPS109wu1/isTHGzyjk6ebL/wn5ubz4cfrObIkfZ/UUJDQxg8eCAuF+TlWRS9s3DypPmswSHWOU9hYdZ/gSZNmsBHH61hx/ZdLcGOQ4fyqK6uISysHyNHDvd5TuGny23V1NTQ1OTsURksf16/MzFudw0clEh6Wuu/hvYAO2H9woiICCclNbndPDry9/3Vk+fNX86GOYiIiIiIiIiIeJMeBzssggj/yoQ7L/S9NNVnOXD/ErMw73SZ0lLzJ8KzC82xrBwsgy8PwaU+LuMVVsG6fdbbpMaZ0lpW6hrgvW2mWbsvTjaYRXgrKbEQ098EfUqq3W/jdJnFf6vP662/x95i2HYEJg2x3q5Z3lH44pD1NmndKHvmzfu74aF/wP5SE7AJC4ZbpsEfFsDtF8LscfDE+/DyBhNA86a6Dn69Et7OhJdvhem+L/1+bfp0AKR58XfkyOE+9aFou6jdXIap7qT1lW8OJJh93C9yV9dUWzbYrnVT+qmkpJQ3Xv87jY2NDB48kImTMkhKGkxMzABCQkIAWL16XbcDIM3npu383ampti48N2HieFavXtsS9IiICGfH9l0AZEwYR0BAgM9zio+Pw2630dDQSE7OAZ+DJ4cPF1BfX09MzACiokxPDn9ev7Z6a9zuGjpkCFdeNaPL+/XG/dWT581fzoY5iIiIiIiIiIh4My3FOgDy0R5YtQvm+tBad08RLHip/YJ/XYNZ5K+th8fnWWdENDTBYythxQNmOytOl1kAr7FYUrTZYNowGJFgsgSs+mk88b4J1PiSBfLSethXar3N+SkwoJ85tqcACMD/fgn3XOo5gDEl2ZSI8lS2qtEJv3gXlj/gvSSV0wW/WgonLTJ+wGT8ZPnWitcnmflw01/an/8Tp04HO+rh9Tsh7nRZrFumwcPvwpps30p17S2GeS/A5z+HUd3oh3Im9YkAyKl6sxgd2GGxPXpAFGBq/rtrQm4l+nTZqoIC67uu+dvzISHBHhe6y8oqSD/dc6CjxsZGioqKzTGjolpe37JlG42NjQwZksTd99yO3d75SWouUdQdUdEmUODt85WXW+dARUSEk5aWyv79B9i5YzfnXzCVrKxsACZP8r38FZjgQkpKCgcOHOTzjV8yYsRwr2lkx4+f4K+vvE5Tk5M7F93aEgDx5/Vrq7fGPdN64/7qyfPmL2fDHEREREREREREvJk1FhZ/6vn9Jifc+zdYdj+cN8zzdvlH4ZZXPC/2r9xpyhWNSoTtFiWYVmfDz/8NT1wPoR4qqTc54dk11vMG0yz7knRwBMCVo+FfWzxvm1MKd74Gry+CaA9LaC6XyRR5ZCmWPXwdAaa3hc0Gs8fChv2et62ug1sWw9L73WeqpMWZIEp2secxPsiCn/4Lfn+D5/JhjU3wxw9NwMVKYoQJxvgzAPLMas/Bp7c2mc/4yBwTwJmSDKsehH9mwq+WwYEy7+NX1cLTq+HFW/w3595wTjRBf/qp5/nVI4/zxReb3L5fUmJCfxEREe1eHzNmJDYb5OQcpKamxuP4eXn5lJW1X+gfM2YUNpuN4uLiTiWC2tr0VSYAo8eM8rhYv3Xrdo99FLZu3UFDQyPBwUGkpLb+NWsutZSUNMjt4rTLBYcO5nmclzejRo0AoKS4xOPnO3Wqnt2793gdq7kZ+vYdO1saog8aNJCERC95bm5cMWM6druNgwdz2bD+M8ttXS4Xq1Z+QFOTk6ioKIYNG9rynj+vX1u9Ne6Z1hv3V0+et46cTd5Dze628eccRERERERERER6yzXjzbfvrRRXw1XPmAX00g7LHMdOwpJNcNn/h60WVcCbnObb+gunWh/L5TLBjfkvwOY80xOkWWOTyTK56w346TveG4DPnwjhpsAIt11gvS3A8h0w40n4eI8pc9XM6TIBnoffNUGe415KNE1JhtGnsxGun2TKPVnZUwwzn4RXN5rF/LZCHPCtKdb7u1zwzBqTfZOZ176ZfGOTKUd226vwy6Xesyqum+DfnhqNTthiUdilyQmPr4Rv/8X0Jml0mgDSzdPg05/BnPG+HWdTrn/m25vOiQDI4CTTqPvLLze11PhvduhQLvv25gAwfET7LIuoqCjGjh1DQ0MD/3jrnU77gimf9MbrS3ju2RfZsWNXy+uRkRFkTBiHywXv/Gsp1dWdw6gbNmxk//4DBAYGcNFF53ucf3FRCR9/vLZThLKoqJiPP1oDwNSpkwkMbA0VxsSY5uP7cw5w6lT7p9vlcvHxR2taMke6IyZmACNGppvP985Sqqvb/xVtanKybOlKt+eso1GjRxAaGkJxUQlr1nwCwOQpE7o1r6FDk5g+/RIAPv54Le+9u6LT3MA07v77m2+za1cWNhtcO3dWu4V8f16/tnpr3DOtN+6vnjxvAA5HUMszUFhY5PYY3rbp6RxERERERERERM6EUAfcN937dlW18LN3YNyjcOXTcPurcO2fIOMxExTIrfA+RojDBCLivQRcXC74MAsu+j2c91tTPunmxXDh72HKb+CNz70HPxwB8MAVrb/PHgdjBnqf47bDcPUzMOnXsOBFuO2vJriT8Rj84YP2gRF37Db4r8taMzFGJvi2iH+4Eu5+A8Y/BnOeM9koj68ymSnfudR7A3mXC1bsgIv+YM7Zwpfh24vN79OeMJkW3oIfwYHwvcu8z7Ur7DYI8aGc2b+2wPm/g/OfMPP+9mK45llTgs0XYdbtpc8K50QJrMumX8Le7P1UlB/lmaefZ/SYUYT37095eQXZ2XtxuVwkJMYzYULnonjXzp1NUVEx+flHePqp5xk3bgzx8XE0NjVSUFDI3uz9NDU1kZKSzLhxY9vtO2fO1RQWFFFWVs6zz7zI+IyxxMXFUldXR87+Axw5UojNBrNmX0VCgudsh0suvZAN6zdy6GAeI0cOx+FwUFRUzK5dWTQ1NZGQGM+Mme3v8slTJrJx4xeUl1Xwp+deZnzGGMLDwzlx4gTZe/ZRXl5BcvLQbvcAAZg79xpeKvgrFeVHee7ZP5ORMZ7YuBhqa2vZvWsPlZWVXDFjOmvXrLccJzAwkPHjx/LVV5mUlpad/n1ct+d1+RXTqTl+nMzNW9myZRvbtm0nKWkw0dHRuHBRUV5BYWExLpcLu93GddfNYcSI9E7j+Ov6nalxz6Teur968rzZbDBiRDpZWdksW7aKfftzcAQ6mH3NVQQFOXzepidzEBERERERERE5U350JbzymWkq7k3ZcZMh0VWRoXBRGiRFw4NXwK+WW5eRApPJsKPAukeJJzedZ/p/NHMEwOPzYcGfwVu9D6cL9paYn666MBVunNz6u81myjt9mNU5u6MjlwuOVJqfZk9+BK/dCd+fAY+t8H78+kZTYsyqzJgniy6GCT42U/eV3WaCT5k+LO3VNZhsEauMEU/mdu878GfUOREAiU+I4/Y7bua9d5dTXl7B1i3b270/fHga198wl8DAzg23+/UL5bv33cWKFe+ze1cWmZlb273vcAQydepUrp51JXZ7+1pFISEhfOfeRaxY8R927cwic3P7faOjo5g9+ypGjR5hOf+JEzIICQ5hzZpP2pVNstlsjB03mnnzrsXhaF9cLyIinNtuv5l/v7OUioqjfLrh85b3goODuf76uZRXVPQoABIZGcG9313Ev99ZRm5uHps2Zba8FxQUxIIF8wnr70MHImDipAl81Vz2afRIQkNDuj0vu93GvHlzGJ6exuo16ygrLSc//wj5+a1/QWw2SEkZxtWzZjJokPswsr+u35ka90zqrfurJ88bwNzrZnPs2DEKCorYsd1kZ2RMGEdKSrLP2/R0DiIiIiIiIiIiZ0JUKDy7EG5abEom+ZvNBg/NhNRY8/tDM+E/u2HjAf8fC2DoANMPo6P5E+CmabDkq945bmQoPPUtCO2QjTBuEDx8NfziPd8ae7dVWWsyQz75icnw6E5wwBdpcfD/5kJvrFA9OMP09OhOQMkXYwf5P3OlN9hcnppTnIVcLhdHjhRQWFhMfX09ISEhJCcPIT4+zqf9jx8/Tm5uPtXVNdhsNqIiIxmWkuzTYn11dQ15p/cNCnYQGxvDsGHJ2CwaPPzqkccBeOCB7xKfEEdlZRU5OQepq6sjPLw/yclDiI6Otjyu0+kkNzefkpJSGhsbiY6KIi09ldDQEHJylUCBpwAABqlJREFUDnLoYC4JCfFkTGifcfHRh6a01oUXnU9/H4IYxUUlFBYWcaK2lvDw/gwfnk5YWD8qKyvZvGkr/cL6cfHFnov2OZ1OfvubP1Jf38Dtd9xMenqq12P6qrSkjLLyco4dq8aGzZy7YUMJD+/v8xjduX6+nMPeGtebrVu3U15WwZAhST0KtPTm/dXd583pdHHw4CFKikux2W2MGTOqpbl9V7bpyRxERERERERERM6U/34Xfv+B98yMrpo/Ef5+T/um5tnFppRW22wHfwgPgeX3w2UelqmqauHy/+lehoSVoED4881w18Xu3z/VCIteM/1SuuPZhTBjFHzjKdOTxZ8iQ+E/3zfZK81eWAf3L/G8z9Rk2PQL34/xxUG49nmoON79eboTEwbrfmKCTGe7cyoAcq7pGADpy7Kz9/H3N98mMjKCH/34QcsAgIiIiIiIiIiIiBhNTvjh2/D8uq5nKngya6wJfkS76WGRmQfz/+y/IEh4CLyxyARcrBQeM/0l/BUECQqEP9wA359pnUFRXWd6iizf0fUg0y/nwK+vgw374caXOjej767IUPj73XBNhz4lL62H+970vF9XAyAAK3ea3jFHT3R9nu7EhMG734NLh/tnvN52TjRBl7NbU5OTT9ZtAGDqeZMV/BAREREREREREfFRgN2UcPrt9dCvh02lA+1wzyXw9r3ugx8AU5Lhwx+YxfSeLuOlxMLKB7wHPwAGRZrjzhlvelT0RGx/eO0O78EPgIgQWHKP6YHi6NxBwVJihPnvpcNh9Y9goh96daTFwQcPdQ5+NL9ndW4Gdi6A4tWc8bDqQRiV2PV9OxozENb++NwJfgAEPProo49+3ZPoq9auNc3Dp02b6nMvjXPJ559/xb69+0/3NikkPDycBTfOd9uLRURERERERERERNyz2+CSdJg5GvYUmWyJrmQr2GwwMgFeuBl+djWEOKy3j+sPN02FwADYWWAaYXdFaBDccQG8ebfpBeGrsGD45hRIjISth6GmrmvHDbSbBf0l98AVI33vneEIgKvHwqShJgOl3IdsiJj+8NQ3TbYGQHw43HyeuS47Ckzj864IdcC90+Fvd5lr5U5CBLy7zTS97yjADr+dD6Pdt0O2lBQN354GtfWwu8g0uu+K/sGmp8jriyB5QNeP/3VSCaxe1JdLYDU1NfG7J57k1KlTgGmofuutN5GQGP81z0xEREREREREROTc1eiEVTvhxfXwWY4p4eRJvyAYPxjuvgQWTjXZDl2Vd9SUXlryFRRUeV4cD7CbIMB1E+C+6T3Phqg4Aa9+Bq9uhANlpl+HOzYgOgy+Mdo03b403cylu07Uwz83w+JPYdsROHGq8zYDwmDxbXD9JPdj5JTCyxvg7c3mnDU63W8XYDdZJPMnmrn7EizKzIMbXoT8o62vBQXCj6805bh68tkBdheauf97KxQf8zz3wAAYHAkLJsN9l8Hwc3TZVwGQXuSPZtdnq4aGBrZt20n9qXqioiMZOXI4gYGBX/e0RERERERERERE+ozCKtiUB1lF5v+bV3Ljwk1Jo6nJkBrb81JWYAIQOwvMAvyBMpMtABAcCMNiYdIQE/ToH9zzY7XV5DTN2Tflwr6S1oBPYAAMiYaMJJg81PSe8CeXC3IrzOfNKjL9PZwuGBQFN08z59WbugZzzrbkw/7S1kyaYAekxZrzNXFI10ublVTDW5vMmP2CTNDp4nTfM158UVsPO46YuR8oM+c9wG6ub3o8TEwyc/eWTXS2UwBERERERERERERERET6HDVBFxERERERERERERGRPkcBEBERERERERERERER6XMUABERERERERERERERkT5HARAREREREREREREREelzFAAREREREREREREREZE+RwEQERERERERERERERHpcxQAERERERERERERERGRPkcBEBERERERERERERER6XMUABERERERERERERERkT5HARAREREREREREREREelzFAAREREREREREREREZE+RwEQERERERERERERERHpcxQAERERERERERERERGRPkcBEBERERERERERERER6XMUABERERERERERERERkT5HARAREREREREREREREelzFAAREREREREREREREZE+RwEQERERERERERERERHpcxQAERERERERERERERGRPkcBEBERERERERERERER6XMUABERERERERERERERkT5HARAREREREREREREREelzFAAREREREREREREREZE+RwEQERERERERERERERHpc/4PUJ68THkuaSIAAAAASUVORK5CYII=;direction=south;" vertex="1" parent="1">
                    <mxGeometry x="509.995" y="916.665" width="260" height="346.67" as="geometry"/>
                </mxCell>
                <mxCell id="3" value="&lt;h1&gt;Card Position 1&lt;/h1&gt;&lt;div&gt;&lt;br&gt;&lt;/div&gt;" style="text;html=1;strokeColor=none;fillColor=none;spacing=5;spacingTop=-20;whiteSpace=wrap;overflow=hidden;rounded=0;" vertex="1" parent="1">
                    <mxGeometry x="20" y="1370" width="190" height="50" as="geometry"/>
                </mxCell>
                <mxCell id="4" value="" style="whiteSpace=wrap;html=1;aspect=fixed;fillColor=#115ff3;fontSize=20;fontColor=#F1F8F0;" vertex="1" parent="1">
                    <mxGeometry x="40" y="1410" width="150" height="150" as="geometry"/>
                </mxCell>
                <mxCell id="7" value="&lt;b&gt;&lt;font style=&quot;font-size: 40px&quot;&gt;$100&lt;/font&gt;&lt;/b&gt;" style="text;html=1;resizable=0;autosize=1;align=center;verticalAlign=middle;points=[];fillColor=none;strokeColor=none;rounded=0;fontColor=#f7e654;" vertex="1" parent="1">
                    <mxGeometry x="65" y="1470" width="100" height="30" as="geometry"/>
                </mxCell>
            </root>
        </mxGraphModel>
    </diagram>
</mxfile>